<svg width="19" height="19" viewBox="0 0 19 19" fill="none" xmlns="http://www.w3.org/2000/svg">
<path d="M9.34903 0.18457C4.20707 0.18457 0 4.38229 0 9.5523C0 14.2268 3.42175 18.1067 7.89058 18.8078V12.2635H5.51593V9.5523H7.89058V7.48617C7.89058 5.13956 9.28359 3.84939 11.4245 3.84939C12.4436 3.84939 13.5094 4.02702 13.5094 4.02702V6.33623H12.3314C11.1721 6.33623 10.8075 7.05611 10.8075 7.79468V9.5523H13.4065L12.9858 12.2635H10.8075V18.8078C13.0105 18.4599 15.0166 17.3359 16.4636 15.6386C17.9106 13.9413 18.7031 11.7826 18.6981 9.5523C18.6981 4.38229 14.491 0.18457 9.34903 0.18457Z" fill="#014751"/>
</svg>
