<svg width="21" height="20" viewBox="0 0 21 20" fill="none" xmlns="http://www.w3.org/2000/svg">
<path d="M5.83414 0H14.2836C17.5024 0 20.1177 2.54058 20.1177 5.66745V13.8755C20.1177 15.3786 19.5031 16.8201 18.409 17.883C17.3148 18.9458 15.8309 19.5429 14.2836 19.5429H5.83414C2.61531 19.5429 0 17.0024 0 13.8755V5.66745C0 4.16435 0.614667 2.72281 1.70878 1.65996C2.80289 0.597105 4.28683 0 5.83414 0ZM5.63296 1.95429C4.67256 1.95429 3.7515 2.32491 3.0724 2.98461C2.39329 3.64432 2.01177 4.53906 2.01177 5.47202V14.0709C2.01177 16.0154 3.63125 17.5886 5.63296 17.5886H14.4848C15.4452 17.5886 16.3662 17.218 17.0453 16.5583C17.7244 15.8986 18.106 15.0039 18.106 14.0709V5.47202C18.106 3.5275 16.4865 1.95429 14.4848 1.95429H5.63296ZM15.3398 3.42001C15.6732 3.42001 15.9931 3.5487 16.2289 3.77776C16.4647 4.00683 16.5971 4.3175 16.5971 4.64145C16.5971 4.96539 16.4647 5.27607 16.2289 5.50513C15.9931 5.7342 15.6732 5.86288 15.3398 5.86288C15.0063 5.86288 14.6865 5.7342 14.4507 5.50513C14.2149 5.27607 14.0824 4.96539 14.0824 4.64145C14.0824 4.3175 14.2149 4.00683 14.4507 3.77776C14.6865 3.5487 15.0063 3.42001 15.3398 3.42001ZM10.0589 4.88574C11.3928 4.88574 12.672 5.40048 13.6152 6.31673C14.5584 7.23299 15.0883 8.47569 15.0883 9.77147C15.0883 11.0672 14.5584 12.31 13.6152 13.2262C12.672 14.1425 11.3928 14.6572 10.0589 14.6572C8.72498 14.6572 7.44572 14.1425 6.50252 13.2262C5.55932 12.31 5.02943 11.0672 5.02943 9.77147C5.02943 8.47569 5.55932 7.23299 6.50252 6.31673C7.44572 5.40048 8.72498 4.88574 10.0589 4.88574ZM10.0589 6.84003C9.25853 6.84003 8.49098 7.14888 7.92506 7.69863C7.35914 8.24838 7.04121 8.994 7.04121 9.77147C7.04121 10.5489 7.35914 11.2946 7.92506 11.8443C8.49098 12.3941 9.25853 12.7029 10.0589 12.7029C10.8592 12.7029 11.6268 12.3941 12.1927 11.8443C12.7586 11.2946 13.0765 10.5489 13.0765 9.77147C13.0765 8.994 12.7586 8.24838 12.1927 7.69863C11.6268 7.14888 10.8592 6.84003 10.0589 6.84003Z" fill="#014751"/>
</svg>
