<svg width="19" height="20" viewBox="0 0 19 20" fill="none" xmlns="http://www.w3.org/2000/svg">
<path d="M16.554 0.839355C17.1028 0.839355 17.6291 1.05737 18.0172 1.44543C18.4053 1.83349 18.6233 2.35981 18.6233 2.90861V17.3934C18.6233 17.9422 18.4053 18.4685 18.0172 18.8566C17.6291 19.2446 17.1028 19.4626 16.554 19.4626H2.06925C1.52045 19.4626 0.99413 19.2446 0.60607 18.8566C0.21801 18.4685 0 17.9422 0 17.3934V2.90861C0 2.35981 0.21801 1.83349 0.60607 1.44543C0.99413 1.05737 1.52045 0.839355 2.06925 0.839355H16.554ZM16.0367 16.8761V11.3925C16.0367 10.498 15.6814 9.64009 15.0488 9.00756C14.4163 8.37502 13.5584 8.01966 12.6638 8.01966C11.7844 8.01966 10.7601 8.55767 10.2635 9.36468V8.21624H7.37689V16.8761H10.2635V11.7754C10.2635 10.9787 10.905 10.3269 11.7016 10.3269C12.0858 10.3269 12.4542 10.4795 12.7259 10.7511C12.9975 11.0228 13.1501 11.3912 13.1501 11.7754V16.8761H16.0367ZM4.01435 6.59188C4.47534 6.59188 4.91745 6.40875 5.24342 6.08278C5.56939 5.75681 5.75252 5.3147 5.75252 4.85371C5.75252 3.8915 4.97655 3.10519 4.01435 3.10519C3.55061 3.10519 3.10587 3.28941 2.77796 3.61732C2.45005 3.94523 2.26583 4.38997 2.26583 4.85371C2.26583 5.81591 3.05215 6.59188 4.01435 6.59188ZM5.45248 16.8761V8.21624H2.58657V16.8761H5.45248Z" fill="#014751"/>
</svg>
