<svg width="21" height="16" viewBox="0 0 21 16" fill="none" xmlns="http://www.w3.org/2000/svg">
<path d="M8.27701 11.2551L13.6467 8.1512L8.27701 5.04732V11.2551ZM20.2373 3.15395C20.3718 3.64023 20.4649 4.29204 20.527 5.11974C20.5994 5.94744 20.6304 6.66133 20.6304 7.28211L20.6925 8.1512C20.6925 10.417 20.527 12.0828 20.2373 13.1484C19.9786 14.0796 19.3785 14.6797 18.4474 14.9383C17.9611 15.0728 17.0713 15.166 15.7056 15.228C14.3606 15.3005 13.1294 15.3315 11.9913 15.3315L10.3463 15.3936C6.01118 15.3936 3.3108 15.228 2.24514 14.9383C1.31398 14.6797 0.713892 14.0796 0.455236 13.1484C0.320734 12.6622 0.227618 12.0104 0.16554 11.1827C0.0931164 10.3549 0.0620775 9.64106 0.0620775 9.02028L0 8.1512C0 5.88537 0.16554 4.21962 0.455236 3.15395C0.713892 2.22279 1.31398 1.62271 2.24514 1.36405C2.73141 1.22955 3.62119 1.13643 4.9869 1.07435C6.33191 1.00193 7.56312 0.970891 8.70121 0.970891L10.3463 0.908813C14.6813 0.908813 17.3817 1.07435 18.4474 1.36405C19.3785 1.62271 19.9786 2.22279 20.2373 3.15395Z" fill="#014751"/>
</svg>
