<svg width="104" height="30" viewBox="0 0 104 30" fill="none" xmlns="http://www.w3.org/2000/svg">
<g clip-path="url(#clip0_335_16869)">
<path d="M35.3891 19.3956L32.1994 17.6785L35.3377 16.0515C35.6142 15.9101 35.7878 15.6271 35.7878 15.3184C35.7878 15.0097 35.6206 14.7268 35.3506 14.5789L31.4406 12.476L35.2669 10.4953C35.492 10.3795 35.6335 10.1544 35.6335 9.8972C35.6335 9.63996 35.5049 9.41488 35.2734 9.2927L19.0419 0.559577C18.4502 0.244464 17.7428 0.244464 17.1576 0.559577L0.913256 9.2927C0.688176 9.41488 0.553128 9.63996 0.553128 9.8972C0.553128 10.1544 0.694607 10.3795 0.919687 10.4953L4.74605 12.476L0.836086 14.5789C0.565989 14.7268 0.392356 15.0097 0.398787 15.3184C0.398787 15.6271 0.57242 15.9101 0.848948 16.0515L3.98721 17.6785L0.797501 19.3956C0.501681 19.5564 0.315186 19.865 0.315186 20.2059C0.315186 20.5467 0.508112 20.849 0.803931 21.0097L17.0612 29.4277C17.3827 29.5949 17.73 29.6786 18.0837 29.6786C18.4374 29.6786 18.7846 29.5949 19.1062 29.4277L35.3634 21.0097C35.6657 20.8554 35.8522 20.5467 35.8522 20.2059C35.8522 19.865 35.6721 19.5564 35.3698 19.3956H35.3891ZM0.707468 9.8972C0.707468 9.69784 0.810362 9.52421 0.983996 9.42774L17.2219 0.694625C17.492 0.546715 17.7943 0.475975 18.0901 0.475975C18.3859 0.475975 18.6882 0.546715 18.9583 0.694625L35.2026 9.42774C35.3763 9.52421 35.4792 9.69784 35.4792 9.8972C35.4792 10.0966 35.3698 10.2702 35.1962 10.3602L18.939 18.7782C18.4116 19.0548 17.775 19.0548 17.2477 18.7782L0.990427 10.3602C0.816793 10.2702 0.707468 10.0966 0.707468 9.8972ZM0.861809 15.3184C0.861809 15.1769 0.932549 15.0548 1.05474 14.9904L5.24123 12.7396L17.1769 18.9197C17.4663 19.0676 17.7814 19.1448 18.0901 19.1448C18.3988 19.1448 18.7203 19.0676 19.0033 18.9197L30.939 12.7396L35.1255 14.9904C35.2477 15.0548 35.3248 15.1834 35.3184 15.3184C35.3184 15.4599 35.2412 15.5821 35.119 15.6464L18.8618 24.0644C18.3795 24.3152 17.8007 24.3152 17.312 24.0644L1.06117 15.6464C0.93898 15.5821 0.861809 15.4599 0.861809 15.3184ZM35.0933 20.4631L18.8361 28.8811C18.3731 29.1191 17.82 29.1191 17.357 28.8811L1.09975 20.4631C0.958272 20.3924 0.93898 20.2573 0.93898 20.2059C0.93898 20.1544 0.951841 20.0194 1.09332 19.9422L4.64959 18.0258L17.1062 24.476C17.4149 24.6367 17.7557 24.7139 18.0901 24.7139C18.4245 24.7139 18.7653 24.6367 19.074 24.476L31.5306 18.0258L35.0869 19.9422C35.2284 20.0194 35.2412 20.148 35.2412 20.2059C35.2412 20.2573 35.2219 20.3924 35.0805 20.4631H35.0933Z" fill="#014751" stroke="#014751" stroke-miterlimit="10"/>
<path d="M55.5883 10.7976C55.3826 11.4728 55.0546 12.1481 54.5851 12.7333C53.5112 14.103 51.8842 14.7397 50.1543 14.7397C48.4244 14.7397 46.7652 14.0452 45.7234 12.7333C44.7009 11.4535 44.3022 9.84581 44.3215 8.25095C44.3408 6.60465 44.7009 5.02909 45.7234 3.74935C46.7588 2.39886 48.3858 1.76221 50.1543 1.76221C51.9228 1.76221 53.5433 2.41816 54.5851 3.74935C55.1382 4.45674 55.4855 5.23488 55.6912 6.0323L54.0964 6.28954C53.942 5.71719 53.717 5.16414 53.3504 4.69468C52.6237 3.71076 51.3954 3.22201 50.1478 3.22201C48.9002 3.20272 47.6719 3.70433 46.9453 4.69468C46.1993 5.66574 45.9742 6.96478 45.9613 8.24452C45.9806 9.50497 46.2057 10.804 46.9453 11.7944C47.6719 12.7783 48.9002 13.267 50.1478 13.267C51.3954 13.2863 52.6237 12.7847 53.3504 11.7944C53.6591 11.3635 53.9035 10.8619 54.0449 10.341L55.5883 10.7911V10.7976Z" fill="#014751"/>
<path d="M58.9003 2.02588V14.4889H57.3633V2.02588H58.9003Z" fill="#014751"/>
<path d="M69.9937 3.47926H65.7557V14.4825H64.2123V3.47926H59.9551V2.02588H69.9937V3.47926Z" fill="#014751"/>
<path d="M79.6204 2.02588L75.4339 9.29276V14.4825H73.8777V9.29276L69.6719 2.02588H71.4725L74.6558 7.5307L77.8198 2.02588H79.6204Z" fill="#014751"/>
<path d="M46.4693 15.5112V26.5016H52.2507V27.9743H44.9324V15.5112H46.4693Z" fill="#014751"/>
<path d="M60.4563 25.6335H54.7457L53.9676 27.9679H52.3599L56.5335 15.5049H58.6814L62.855 27.9679H61.2602L60.4628 25.6335H60.4563ZM59.974 24.1801L57.5882 17.1383L55.2345 24.1801H59.974Z" fill="#014751"/>
<path d="M72.6429 15.5112L68.4564 22.7781V27.9678H66.9001V22.7781L62.6943 15.5112H64.495L67.6783 21.0161L70.8422 15.5112H72.6429Z" fill="#014751"/>
<path d="M74.894 16.9646V20.9968H80.103V22.4694H74.894V26.5016H81.1384V27.9743H73.3506V15.5112H81.1384V16.9646H74.894Z" fill="#014751"/>
<path d="M90.7522 27.9743L88.5207 23.3569H84.6107V27.9743H83.0737V15.5112H88.3856C88.8358 15.5112 89.2667 15.582 89.6847 15.7363C90.3278 15.9421 90.913 16.3408 91.3438 16.8617C91.9676 17.5562 92.3278 18.508 92.3471 19.4405C92.3471 20.3408 91.9998 21.2218 91.4274 21.9164C91.0802 22.3665 90.6171 22.7267 90.077 22.971L92.5142 27.9743H90.7522ZM84.6043 21.8971H88.3792C89.0351 21.8971 89.749 21.5498 90.212 20.9775C90.5593 20.5466 90.7651 19.9935 90.7458 19.4341C90.7265 18.791 90.5014 18.1865 90.0705 17.7363C89.6396 17.2861 88.9773 16.9775 88.3728 16.9775H84.5979V21.8907L84.6043 21.8971Z" fill="#014751"/>
<path d="M101.659 19.0615C101.331 18.2833 100.913 17.6595 100.206 17.2287C99.7236 16.9329 99.0484 16.7271 98.386 16.7271C97.7429 16.7078 97.1062 16.8493 96.6368 17.1065C96.0644 17.4345 95.7043 18.0261 95.7043 18.6113C95.7043 18.9907 95.8458 19.3702 96.1223 19.6338C96.4696 20.0004 97.1062 20.2576 97.7815 20.4634L99.9937 21.1065C100.945 21.383 101.672 21.7303 102.264 22.3026C102.907 22.9264 103.299 23.7882 103.299 24.6885C103.299 25.7238 102.727 26.7978 101.826 27.4216C100.945 28.0454 99.7815 28.2319 98.5918 28.2319C96.9648 28.2319 95.5435 27.7303 94.6111 26.502C94.058 25.8074 93.7622 24.9972 93.5757 24.1997L95.132 23.7817C95.2541 24.4377 95.4792 25.0615 95.8394 25.5309C96.4824 26.412 97.5885 26.7592 98.6432 26.7592C99.4406 26.7592 100.373 26.5534 100.926 26.1547C101.447 25.7753 101.653 25.1837 101.653 24.6306C101.653 24.1611 101.479 23.7303 101.132 23.4023C100.753 23.0357 100.251 22.7978 99.6271 22.6242L97.3442 21.9489C96.4953 21.6917 95.6657 21.3766 95.0226 20.7914C94.3667 20.219 94.0709 19.338 94.0709 18.5599C94.0709 17.3637 94.8683 16.2769 95.9037 15.756C96.714 15.338 97.5821 15.2544 98.3988 15.2544C99.267 15.2544 100.219 15.4473 100.978 15.8975C102 16.4827 102.759 17.4538 103.19 18.6499L101.646 19.0679L101.659 19.0615Z" fill="#014751"/>
</g>
<defs>
<clipPath id="clip0_335_16869">
<rect width="103.299" height="30" fill="white"/>
</clipPath>
</defs>
</svg>
