<svg width="297" height="399" viewBox="0 0 297 399" fill="none" xmlns="http://www.w3.org/2000/svg">
<path d="M164.682 250.136L289.939 311.682C298.277 315.774 298.373 327.076 290.1 331.289L165.163 395.041C154.838 400.32 142.395 400.32 132.069 395.041L7.11724 331.289C-1.15626 327.061 -1.06004 315.774 7.27761 311.682L132.55 250.136C142.62 245.192 154.613 245.192 164.682 250.136Z" fill="#FFE7A4"/>
<path d="M164.682 200.85L289.939 262.396C298.277 266.488 298.373 277.79 290.1 282.004L165.147 345.756C154.822 351.034 142.379 351.034 132.053 345.756L7.10119 282.004C-1.17228 277.775 -1.07612 266.488 7.26153 262.396L132.534 200.85C142.604 195.906 154.597 195.906 164.666 200.85L164.682 200.85Z" fill="#A1F7B9"/>
<path d="M164.682 151.565L289.939 213.111C298.277 217.203 298.373 228.505 290.1 232.718L165.147 296.47C154.822 301.749 142.379 301.749 132.053 296.47L7.10119 232.718C-1.17228 228.49 -1.07612 217.203 7.26153 213.111L132.534 151.565C142.604 146.621 154.597 146.621 164.666 151.565L164.682 151.565Z" fill="#3ACE8E"/>
<path d="M164.682 102.279L289.939 163.825C298.277 167.917 298.373 179.219 290.1 183.433L165.147 247.185C154.822 252.463 142.379 252.463 132.053 247.185L7.10119 183.433C-1.17228 179.204 -1.07612 167.917 7.26153 163.825L132.534 102.279C142.604 97.3351 154.597 97.3351 164.666 102.279L164.682 102.279Z" fill="#5DB3B5"/>
<path d="M164.682 52.9932L289.939 114.539C298.277 118.631 298.373 129.933 290.1 134.147L165.147 197.899C154.822 203.177 142.379 203.177 132.053 197.899L7.10119 134.147C-1.17228 129.918 -1.07612 118.631 7.26153 114.539L132.534 52.9932C142.604 48.0495 154.597 48.0495 164.666 52.9932L164.682 52.9932Z" fill="#B1CDEF"/>
<path d="M164.682 3.70774L289.939 65.2538C298.277 69.3457 298.373 80.6479 290.1 84.8616L165.147 148.613C154.822 153.892 142.379 153.892 132.053 148.613L7.10119 84.8616C-1.17228 80.6328 -1.07612 69.3458 7.26153 65.2538L132.534 3.70775C142.604 -1.23603 154.597 -1.23603 164.666 3.70774L164.682 3.70774Z" fill="#C4B5F0"/>
</svg>
