<svg width="413" height="151" viewBox="0 0 413 151" fill="none" xmlns="http://www.w3.org/2000/svg">
<g clip-path="url(#clip0_38_33)">
<path d="M222.247 53.1901C221.425 55.891 220.113 58.592 218.237 60.9328C213.943 66.4119 207.438 68.9586 200.521 68.9586C193.605 68.9586 186.972 66.1804 182.806 60.9328C178.718 55.8139 177.124 49.383 177.201 43.0036C177.278 36.4184 178.718 30.1161 182.806 24.9972C186.946 19.5952 193.451 17.0486 200.521 17.0486C207.592 17.0486 214.071 19.6724 218.237 24.9972C220.448 27.8267 221.836 30.9393 222.659 34.129L216.282 35.1579C215.665 32.8685 214.766 30.6563 213.3 28.7785C210.395 24.8428 205.484 22.8878 200.496 22.8878C195.508 22.8107 190.597 24.8171 187.692 28.7785C184.709 32.6627 183.809 37.8589 183.758 42.9779C183.835 48.0197 184.735 53.2158 187.692 57.1772C190.597 61.1129 195.508 63.0679 200.496 63.0679C205.484 63.1451 210.395 61.1386 213.3 57.1772C214.534 55.4537 215.511 53.4473 216.077 51.3637L222.247 53.1643V53.1901Z" fill="#014751"/>
<path d="M235.489 18.1034V67.9555H229.344V18.1034H235.489Z" fill="#014751"/>
<path d="M279.841 23.9169H262.897V67.9298H256.727V23.9169H239.706V18.1034H279.841V23.9169Z" fill="#014751"/>
<path d="M318.331 18.1034L301.593 47.1709V67.9298H295.371V47.1709L278.556 18.1034H285.755L298.482 40.1227L311.132 18.1034H318.331Z" fill="#014751"/>
<path d="M185.79 72.0456V116.007H208.904V121.898H179.645V72.0456H185.79Z" fill="#014751"/>
<path d="M241.711 112.534H218.879L215.768 121.872H209.341L226.027 72.02H234.615L251.301 121.872H244.925L241.737 112.534H241.711ZM239.783 106.721L230.244 78.5538L220.833 106.721H239.783Z" fill="#014751"/>
<path d="M290.434 72.0456L273.696 101.113V121.872H267.474V101.113L250.659 72.0456H257.858L270.585 94.0649L283.235 72.0456H290.434Z" fill="#014751"/>
<path d="M299.433 77.8591V93.9877H320.259V99.8784H299.433V116.007H324.398V121.898H293.262V72.0456H324.398V77.8591H299.433Z" fill="#014751"/>
<path d="M362.837 121.898L353.916 103.428H338.283V121.898H332.138V72.0456H353.376C355.175 72.0456 356.898 72.3286 358.569 72.9459C361.14 73.7691 363.48 75.3639 365.203 77.4475C367.697 80.2257 369.137 84.0328 369.214 87.7627C369.214 91.3639 367.825 94.8881 365.537 97.6662C364.149 99.4668 362.297 100.907 360.138 101.885L369.882 121.898H362.837ZM338.257 97.589H353.35C355.972 97.589 358.826 96.2 360.678 93.9106C362.066 92.1871 362.889 89.9749 362.812 87.7369C362.735 85.1646 361.835 82.7466 360.112 80.9459C358.389 79.1453 355.741 77.9106 353.324 77.9106H338.232V97.5633L338.257 97.589Z" fill="#014751"/>
<path d="M406.443 86.2448C405.132 83.1323 403.46 80.6371 400.632 78.9136C398.704 77.7304 396.004 76.9072 393.356 76.9072C390.785 76.83 388.239 77.396 386.362 78.4249C384.074 79.7368 382.634 82.1034 382.634 84.4442C382.634 85.9619 383.2 87.4796 384.306 88.5342C385.694 90.0005 388.239 91.0294 390.939 91.8525L399.784 94.4249C403.589 95.531 406.494 96.9201 408.86 99.2095C411.431 101.705 412.999 105.152 412.999 108.753C412.999 112.894 410.711 117.19 407.111 119.685C403.589 122.181 398.935 122.926 394.179 122.926C387.674 122.926 381.992 120.92 378.263 116.007C376.052 113.229 374.87 109.988 374.124 106.798L380.346 105.126C380.835 107.75 381.734 110.245 383.174 112.123C385.745 115.647 390.168 117.036 394.384 117.036C397.573 117.036 401.301 116.213 403.512 114.618C405.594 113.1 406.417 110.734 406.417 108.521C406.417 106.644 405.723 104.92 404.335 103.608C402.818 102.142 400.812 101.19 398.318 100.496L389.191 97.7947C385.797 96.7657 382.48 95.5053 379.909 93.1644C377.286 90.8751 376.104 87.3509 376.104 84.2384C376.104 79.4538 379.292 75.1066 383.431 73.023C386.671 71.3509 390.142 71.0165 393.407 71.0165C396.878 71.0165 400.684 71.7882 403.718 73.5889C407.806 75.9297 410.84 79.814 412.562 84.5985L406.392 86.2706L406.443 86.2448Z" fill="#014751"/>
</g>
<g clip-path="url(#clip1_38_33)">
<path d="M88.6568 94.663L136.313 117.955C139.486 119.503 139.522 123.781 136.375 125.375L88.8398 149.502C84.9114 151.5 80.1772 151.5 76.2485 149.502L28.7079 125.375C25.5601 123.775 25.5967 119.503 28.7689 117.955L76.4315 94.663C80.2628 92.792 84.8258 92.792 88.6568 94.663Z" fill="#FFE7A4"/>
<path d="M88.6568 76.0109L136.313 99.3028C139.486 100.851 139.522 105.129 136.375 106.723L88.8337 130.85C84.9053 132.847 80.1711 132.847 76.2424 130.85L28.7018 106.723C25.554 105.123 25.5906 100.851 28.7628 99.3028L76.4254 76.0109C80.2567 74.1399 84.8197 74.1399 88.6507 76.0109H88.6568Z" fill="#A1F7B9"/>
<path d="M88.6568 57.3592L136.313 80.651C139.486 82.1996 139.522 86.4768 136.375 88.0712L88.8337 112.198C84.9053 114.196 80.1711 114.196 76.2424 112.198L28.7018 88.0712C25.554 86.4711 25.5906 82.1996 28.7628 80.651L76.4254 57.3592C80.2567 55.4881 84.8197 55.4881 88.6507 57.3592H88.6568Z" fill="#3ACE8E"/>
<path d="M88.6568 38.7071L136.313 61.9989C139.486 63.5475 139.522 67.8247 136.375 69.4195L88.8337 93.5462C84.9053 95.5436 80.1711 95.5436 76.2424 93.5462L28.7018 69.4195C25.554 67.8191 25.5906 63.5475 28.7628 61.9989L76.4254 38.7071C80.2567 36.8361 84.8197 36.8361 88.6507 38.7071H88.6568Z" fill="#5DB3B5"/>
<path d="M88.6568 20.0551L136.313 43.3468C139.486 44.8954 139.522 49.1726 136.375 50.7674L88.8337 74.8941C84.9053 76.8916 80.1711 76.8916 76.2424 74.8941L28.7018 50.7674C25.554 49.167 25.5906 44.8954 28.7628 43.3468L76.4254 20.0551C80.2567 18.1842 84.8197 18.1842 88.6507 20.0551H88.6568Z" fill="#B1CDEF"/>
<path d="M88.6568 1.40318L136.313 24.695C139.486 26.2436 139.522 30.5209 136.375 32.1155L88.8337 56.242C84.9053 58.2398 80.1711 58.2398 76.2424 56.242L28.7018 32.1155C25.554 30.5152 25.5906 26.2437 28.7628 24.695L76.4254 1.40319C80.2567 -0.467769 84.8197 -0.467769 88.6507 1.40318H88.6568Z" fill="#C4B5F0"/>
</g>
<defs>
<clipPath id="clip0_38_33">
<rect width="413" height="120" fill="white" transform="translate(0 10)"/>
</clipPath>
<clipPath id="clip1_38_33">
<rect width="113" height="151" fill="white" transform="translate(26)"/>
</clipPath>
</defs>
</svg>
