<svg width="302" height="133" viewBox="0 0 302 133" fill="none" xmlns="http://www.w3.org/2000/svg">
<path d="M64.6537 83.1675L114.115 103.431C117.407 104.778 117.445 108.5 114.178 109.887L64.8436 130.877C60.7662 132.615 55.853 132.615 51.7755 130.877L2.43466 109.887C-0.832362 108.495 -0.794368 104.778 2.49798 103.431L51.9655 83.1675C55.9416 81.5398 60.6775 81.5398 64.6537 83.1675Z" fill="#FFE7A4"/>
<path d="M64.6537 66.9409L114.115 87.2046C117.407 88.5518 117.445 92.273 114.178 93.6603L64.8373 114.65C60.7599 116.388 55.8467 116.388 51.7692 114.65L2.42833 93.6603C-0.838694 92.268 -0.800708 88.5518 2.49164 87.2046L51.9592 66.9409C55.9353 65.3132 60.6712 65.3132 64.6474 66.9409L64.6537 66.9409Z" fill="#A1F7B9"/>
<path d="M64.6537 50.7139L114.115 70.9775C117.407 72.3248 117.445 76.046 114.178 77.4333L64.8373 98.4231C60.7599 100.161 55.8467 100.161 51.7692 98.4232L2.42833 77.4333C-0.838694 76.041 -0.800708 72.3248 2.49164 70.9775L51.9592 50.7139C55.9353 49.0861 60.6712 49.0861 64.6474 50.7139L64.6537 50.7139Z" fill="#3ACE8E"/>
<path d="M64.6537 34.4868L114.115 54.7505C117.407 56.0977 117.445 59.8189 114.178 61.2062L64.8373 82.1961C60.7599 83.934 55.8467 83.934 51.7692 82.1961L2.42833 61.2062C-0.838694 59.8139 -0.800708 56.0977 2.49164 54.7505L51.9592 34.4868C55.9353 32.8591 60.6712 32.8591 64.6474 34.4868L64.6537 34.4868Z" fill="#5DB3B5"/>
<path d="M64.6537 18.2597L114.115 38.5234C117.407 39.8707 117.445 43.5918 114.178 44.9792L64.8373 65.969C60.7599 67.7069 55.8467 67.7069 51.7692 65.969L2.42833 44.9792C-0.838694 43.5868 -0.800708 39.8707 2.49164 38.5234L51.9592 18.2597C55.9353 16.632 60.6712 16.632 64.6474 18.2597L64.6537 18.2597Z" fill="#B1CDEF"/>
<path d="M64.6537 2.03271L114.115 22.2964C117.407 23.6436 117.445 27.3648 114.178 28.7521L64.8373 49.742C60.7599 51.4799 55.8467 51.4799 51.7692 49.742L2.42833 28.7521C-0.838694 27.3598 -0.800708 23.6436 2.49164 22.2964L51.9592 2.03271C55.9353 0.405003 60.6712 0.405003 64.6474 2.03271L64.6537 2.03271Z" fill="#C4B5F0"/>
<text fill="white" xml:space="preserve" style="white-space: pre" font-family="Space Grotesk" font-size="10" font-weight="300" letter-spacing="-0.01em"><tspan x="140.606" y="27.4561">Accesibility</tspan></text>
<text fill="white" xml:space="preserve" style="white-space: pre" font-family="Space Grotesk" font-size="10" font-weight="300" letter-spacing="-0.01em"><tspan x="140.606" y="59.4561">Safety</tspan></text>
<text fill="white" xml:space="preserve" style="white-space: pre" font-family="Space Grotesk" font-size="10" font-weight="300" letter-spacing="-0.01em"><tspan x="140.606" y="91.4561">Amenities</tspan></text>
<text fill="white" xml:space="preserve" style="white-space: pre" font-family="Space Grotesk" font-size="10" font-weight="300" letter-spacing="-0.01em"><tspan x="140.606" y="43.4561">Noise</tspan></text>
<text fill="white" xml:space="preserve" style="white-space: pre" font-family="Space Grotesk" font-size="10" font-weight="300" letter-spacing="-0.01em"><tspan x="140.606" y="75.4561">Weather Resistance</tspan></text>
<text fill="white" xml:space="preserve" style="white-space: pre" font-family="Space Grotesk" font-size="10" font-weight="300" letter-spacing="-0.01em"><tspan x="140.606" y="107.456">Accesibility</tspan></text>
</svg>
