<svg width="260" height="258" viewBox="0 0 260 258" fill="none" xmlns="http://www.w3.org/2000/svg">
<path fill-rule="evenodd" clip-rule="evenodd" d="M158.643 57.3274C158.643 57.3274 156.143 54.828 152.143 49.8277C148.143 44.8274 146.943 31.1277 154.143 24.3277C160.143 18.661 174.143 18.3277 180.143 23.8277C181.355 24.9387 182.433 25.935 183.408 26.8358C186.293 29.5024 188.274 31.3325 190.143 32.8269L217.143 5.82794C224.643 -0.668074 243.882 -2.92635 252.143 5.33439C259.643 12.8344 262.201 28.8323 255.143 36.8323C249.143 43.6323 232.976 60.161 225.143 67.8277L235.643 77.8339C240.143 82.8339 240.643 95.8339 232.643 103.328C225.143 110.353 211.143 109.828 206.643 105.328L200.643 99.3277C157.476 142.328 70.0426 229.228 65.6426 232.828C58.3018 238.834 44.6426 248.328 29.6426 253.328C15.0796 258.182 12.2989 257.381 8.94631 256.415C8.84571 256.386 8.74459 256.357 8.64263 256.328C5.14263 255.328 1.14263 251.328 0.142627 246.328C-0.680462 242.212 2.22256 233.355 4.66953 225.888C5.19547 224.283 5.70035 222.743 6.14263 221.328C8.64263 213.328 15.1426 202.328 19.6426 196.328C23.2426 191.528 113.809 101.661 158.643 57.3274ZM79.1426 148.834L164.643 63.8339L194.643 93.3339L138.643 148.834H79.1426Z" fill="#D9D9D9"/>
</svg>
