<svg width="111" height="33" viewBox="0 0 111 33" fill="none" xmlns="http://www.w3.org/2000/svg">
<g clip-path="url(#clip0_52_856)">
<path d="M38.0271 20.8414L34.5996 18.9963L37.9718 17.248C38.269 17.096 38.4555 16.7919 38.4555 16.4602C38.4555 16.1285 38.2759 15.8245 37.9856 15.6656L33.7842 13.4059L37.8958 11.2775C38.1377 11.1531 38.2897 10.9113 38.2897 10.6349C38.2897 10.3585 38.1515 10.1166 37.9027 9.9853L20.4611 0.601121C19.8254 0.262517 19.0653 0.262517 18.4364 0.601121L0.981036 9.9853C0.739176 10.1166 0.59406 10.3585 0.59406 10.6349C0.59406 10.9113 0.746086 11.1531 0.987946 11.2775L5.09957 13.4059L0.898112 15.6656C0.60788 15.8245 0.421302 16.1285 0.428213 16.4602C0.428213 16.7919 0.614791 17.096 0.911933 17.248L4.28415 18.9963L0.856651 20.8414C0.538777 21.0141 0.338379 21.3458 0.338379 21.7121C0.338379 22.0783 0.545688 22.4031 0.863561 22.5758L18.3328 31.6214C18.6783 31.8011 19.0514 31.8909 19.4315 31.8909C19.8116 31.8909 20.1847 31.8011 20.5302 31.6214L37.9995 22.5758C38.3242 22.41 38.5246 22.0783 38.5246 21.7121C38.5246 21.3458 38.3312 21.0141 38.0064 20.8414H38.0271ZM0.759907 10.6349C0.759907 10.4206 0.870471 10.2341 1.05705 10.1304L18.5055 0.746237C18.7958 0.587301 19.1205 0.511287 19.4384 0.511287C19.7563 0.511287 20.0811 0.587301 20.3713 0.746237L37.8267 10.1304C38.0133 10.2341 38.1238 10.4206 38.1238 10.6349C38.1238 10.8491 38.0064 11.0357 37.8198 11.1324L20.3506 20.178C19.7839 20.4751 19.0998 20.4751 18.5332 20.178L1.06396 11.1324C0.877382 11.0357 0.759907 10.8491 0.759907 10.6349ZM0.925754 16.4602C0.925754 16.3082 1.00177 16.1769 1.13306 16.1078L5.63166 13.6892L18.4572 20.33C18.7681 20.4889 19.1067 20.5719 19.4384 20.5719C19.7701 20.5719 20.1156 20.4889 20.4197 20.33L33.2452 13.6892L37.7438 16.1078C37.8751 16.1769 37.958 16.3151 37.9511 16.4602C37.9511 16.6123 37.8682 16.7436 37.7369 16.8127L20.2677 25.8582C19.7494 26.1277 19.1275 26.1277 18.6023 25.8582L1.13997 16.8127C1.00868 16.7436 0.925754 16.6123 0.925754 16.4602ZM37.7092 21.9885L20.24 31.034C19.7425 31.2897 19.1482 31.2897 18.6507 31.034L1.18143 21.9885C1.02941 21.9125 1.00868 21.7673 1.00868 21.7121C1.00868 21.6568 1.0225 21.5117 1.17452 21.4287L4.99591 19.3695L18.3811 26.3005C18.7128 26.4733 19.0791 26.5562 19.4384 26.5562C19.7978 26.5562 20.164 26.4733 20.4957 26.3005L33.8809 19.3695L37.7023 21.4287C37.8543 21.5117 37.8682 21.6499 37.8682 21.7121C37.8682 21.7673 37.8474 21.9125 37.6954 21.9885H37.7092Z" fill="#014751" stroke="#014751" stroke-miterlimit="10"/>
<path d="M59.7325 11.6023C59.5114 12.3279 59.159 13.0534 58.6545 13.6823C57.5005 15.1542 55.7522 15.8383 53.8933 15.8383C52.0345 15.8383 50.2516 15.092 49.1322 13.6823C48.0334 12.3071 47.605 10.5795 47.6257 8.86579C47.6464 7.09676 48.0334 5.40374 49.1322 4.02859C50.2447 2.57743 51.993 1.89331 53.8933 1.89331C55.7937 1.89331 57.5351 2.59816 58.6545 4.02859C59.2488 4.78872 59.622 5.62487 59.8431 6.48174L58.1294 6.75816C57.9635 6.14314 57.7217 5.54885 57.3278 5.0444C56.5469 3.98713 55.227 3.46195 53.8864 3.46195C52.5458 3.44122 51.226 3.98022 50.4451 5.0444C49.6435 6.08786 49.4017 7.48374 49.3878 8.85888C49.4086 10.2133 49.6504 11.6092 50.4451 12.6734C51.226 13.7306 52.5458 14.2558 53.8864 14.2558C55.227 14.2766 56.5469 13.7375 57.3278 12.6734C57.6595 12.2104 57.9221 11.6714 58.0741 11.1116L59.7325 11.5954V11.6023Z" fill="#014751"/>
<path d="M63.2915 2.17651V15.5687H61.6399V2.17651H63.2915Z" fill="#014751"/>
<path d="M75.2115 3.73824H70.6576V15.5617H68.9992V3.73824H64.4246V2.17651H75.2115V3.73824Z" fill="#014751"/>
<path d="M85.5562 2.17651L81.0576 9.98514V15.5617H79.3853V9.98514L74.866 2.17651H76.8009L80.2214 8.09172L83.6213 2.17651H85.5562Z" fill="#014751"/>
<path d="M49.9338 16.6675V28.4772H56.1461V30.0596H48.2822V16.6675H49.9338Z" fill="#014751"/>
<path d="M64.9637 27.5444H58.8274L57.9912 30.0528H56.2637L60.7485 16.6606H63.0565L67.5413 30.0528H65.8275L64.9706 27.5444H64.9637ZM64.4455 25.9826L61.8817 18.4159L59.3526 25.9826H64.4455Z" fill="#014751"/>
<path d="M78.0586 16.6675L73.56 24.4761V30.0527H71.8877V24.4761L67.3684 16.6675H69.3033L72.7239 22.5827L76.1237 16.6675H78.0586Z" fill="#014751"/>
<path d="M80.4773 18.2292V22.562H86.0747V24.1444H80.4773V28.4772H87.1872V30.0596H78.8188V16.6675H87.1872V18.2292H80.4773Z" fill="#014751"/>
<path d="M97.518 30.0596L95.1201 25.098H90.9187V30.0596H89.2671V16.6675H94.975C95.4587 16.6675 95.9217 16.7435 96.3709 16.9093C97.0619 17.1305 97.6907 17.5589 98.1537 18.1186C98.824 18.865 99.211 19.8877 99.2317 20.8897C99.2317 21.8571 98.8586 22.8038 98.2436 23.5501C97.8704 24.0339 97.3729 24.4208 96.7924 24.6834L99.4114 30.0596H97.518ZM90.9117 23.5294H94.9681C95.6729 23.5294 96.44 23.1562 96.9375 22.5412C97.3107 22.0782 97.5318 21.484 97.5111 20.8828C97.4903 20.1917 97.2485 19.5422 96.7855 19.0584C96.3225 18.5747 95.6107 18.243 94.9612 18.243H90.9048V23.5225L90.9117 23.5294Z" fill="#014751"/>
<path d="M109.238 20.482C108.885 19.6459 108.436 18.9756 107.676 18.5126C107.158 18.1947 106.432 17.9736 105.72 17.9736C105.029 17.9528 104.345 18.1049 103.841 18.3813C103.226 18.7337 102.839 19.3694 102.839 19.9983C102.839 20.406 102.991 20.8137 103.288 21.097C103.661 21.4909 104.345 21.7673 105.071 21.9884L107.448 22.6795C108.471 22.9766 109.252 23.3498 109.887 23.9648C110.578 24.6351 111 25.5611 111 26.5285C111 27.6411 110.385 28.7951 109.417 29.4654C108.471 30.1357 107.22 30.3361 105.942 30.3361C104.193 30.3361 102.666 29.7971 101.664 28.4772C101.07 27.7309 100.752 26.8602 100.552 26.0033L102.224 25.5542C102.355 26.259 102.597 26.9293 102.984 27.4338C103.675 28.3805 104.864 28.7536 105.997 28.7536C106.854 28.7536 107.856 28.5325 108.45 28.1041C109.01 27.6963 109.231 27.0606 109.231 26.4663C109.231 25.9619 109.044 25.4989 108.671 25.1465C108.263 24.7526 107.724 24.4969 107.054 24.3103L104.601 23.5847C103.689 23.3083 102.797 22.9697 102.106 22.3409C101.401 21.7259 101.084 20.7791 101.084 19.943C101.084 18.6577 101.94 17.4898 103.053 16.9301C103.924 16.4809 104.857 16.3911 105.734 16.3911C106.667 16.3911 107.69 16.5984 108.505 17.0821C109.604 17.711 110.419 18.7544 110.882 20.0397L109.224 20.4889L109.238 20.482Z" fill="#014751"/>
</g>
<defs>
<clipPath id="clip0_52_856">
<rect width="111" height="32.2365" fill="white"/>
</clipPath>
</defs>
</svg>
