<svg width="40" height="41" viewBox="0 0 40 41" fill="none" xmlns="http://www.w3.org/2000/svg">
<path fill-rule="evenodd" clip-rule="evenodd" d="M5.05931 18.298C3.05931 15.2975 0.559268 3.2974 7.05924 1.79741C13.5592 0.297416 18.0592 0.796939 20.5592 4.29704C22.036 6.36456 22.466 8.25752 22.8797 10.0791C22.9857 10.5456 23.0906 11.0075 23.2118 11.4665C23.8284 10.9291 24.4253 10.3829 25.0118 9.84624C28.2151 6.91509 31.1091 4.26696 35.2109 4.88823C40.9551 5.75824 39.0012 9.01338 37.0866 12.2028C36.144 13.7732 35.2109 15.3276 35.2109 16.5736C35.2109 18.1277 36.0082 20.7029 36.8965 23.572C38.2696 28.0067 39.86 33.1435 39.0592 36.2969C38.3783 38.9785 34.4266 38.0255 29.8556 36.9232C25.5738 35.8906 20.7486 34.727 17.5592 36.2969C16.4019 36.8666 15.2601 37.1488 14.1606 37.2091C11.5656 39.2377 5.0305 42.0185 3.01066 38.2246C0.750749 33.9798 0.260031 30.7533 2.23747 28.3579C2.64703 27.8618 3.06562 27.4593 3.48805 27.1186C2.88347 24.2456 2.54945 20.5274 5.10074 18.3603L5.05931 18.298Z" fill="#014751" fill-opacity="0.1"/>
<path d="M7.05924 1.79741L7.02552 1.65125L7.05924 1.79741ZM5.05931 18.298L5.1842 18.2149L5.18412 18.2148L5.05931 18.298ZM20.5592 4.29704L20.6813 4.20985L20.6813 4.20985L20.5592 4.29704ZM22.8797 10.0791L23.026 10.0458L23.026 10.0458L22.8797 10.0791ZM23.2118 11.4665L23.0668 11.5048L23.1284 11.7382L23.3103 11.5796L23.2118 11.4665ZM25.0118 9.84624L24.9106 9.73558L24.9106 9.73558L25.0118 9.84624ZM35.2109 4.88823L35.1885 5.03653L35.1885 5.03653L35.2109 4.88823ZM37.0866 12.2028L37.2152 12.28L37.2152 12.28L37.0866 12.2028ZM36.8965 23.572L37.0398 23.5276L37.0398 23.5276L36.8965 23.572ZM39.0592 36.2969L39.2046 36.3339L39.2046 36.3339L39.0592 36.2969ZM29.8556 36.9232L29.8204 37.069L29.8204 37.069L29.8556 36.9232ZM17.5592 36.2969L17.6255 36.4315L17.6255 36.4315L17.5592 36.2969ZM14.1606 37.2091L14.1524 37.0593L14.1053 37.0619L14.0682 37.0909L14.1606 37.2091ZM3.01066 38.2246L2.87825 38.2951L2.87825 38.2951L3.01066 38.2246ZM2.23747 28.3579L2.12179 28.2624L2.12179 28.2624L2.23747 28.3579ZM3.48805 27.1186L3.58221 27.2354L3.65376 27.1777L3.63483 27.0877L3.48805 27.1186ZM5.10074 18.3603L5.19785 18.4746L5.2995 18.3882L5.22564 18.2772L5.10074 18.3603ZM7.02552 1.65125C5.3482 2.03832 4.25202 3.1057 3.58752 4.52281C2.9256 5.9344 2.69034 7.69437 2.72181 9.48765C2.75331 11.2828 3.05232 13.123 3.46895 14.7031C3.88474 16.2801 4.42114 17.611 4.93449 18.3812L5.18412 18.2148C4.69748 17.4847 4.17137 16.1904 3.75903 14.6266C3.34752 13.0659 3.05277 11.2498 3.02176 9.48238C2.99072 7.71307 3.22419 6.00425 3.85914 4.65018C4.4915 3.30162 5.5203 2.30649 7.09297 1.94357L7.02552 1.65125ZM20.6813 4.20985C18.1228 0.627815 13.532 0.149759 7.02552 1.65125L7.09297 1.94357C13.5865 0.445072 17.9957 0.966062 20.4372 4.38422L20.6813 4.20985ZM23.026 10.0458C22.612 8.2233 22.1771 6.30397 20.6813 4.20985L20.4372 4.38422C21.8949 6.42515 22.3199 8.29173 22.7334 10.1123L23.026 10.0458ZM23.3568 11.4282C23.2364 10.9722 23.1321 10.5128 23.026 10.0458L22.7334 10.1123C22.8393 10.5784 22.9448 11.0429 23.0668 11.5048L23.3568 11.4282ZM24.9106 9.73558C24.3238 10.2725 23.7282 10.8174 23.1132 11.3534L23.3103 11.5796C23.9285 11.0408 24.5267 10.4934 25.1131 9.9569L24.9106 9.73558ZM35.2334 4.73992C31.0487 4.10611 28.1007 6.81639 24.9106 9.73558L25.1131 9.9569C28.3294 7.01379 31.1694 4.4278 35.1885 5.03653L35.2334 4.73992ZM37.2152 12.28C37.693 11.4842 38.1782 10.6761 38.5446 9.90082C38.9103 9.12718 39.1657 8.37032 39.1708 7.67685C39.176 6.97363 38.9234 6.34072 38.2905 5.83268C37.6659 5.33129 36.6805 4.9591 35.2334 4.73992L35.1885 5.03653C36.6134 5.25236 37.5379 5.61331 38.1027 6.06663C38.6591 6.51328 38.8754 7.05663 38.8708 7.67463C38.8662 8.30238 38.6331 9.01169 38.2734 9.77262C37.9145 10.5319 37.4376 11.3267 36.958 12.1256L37.2152 12.28ZM35.3609 16.5736C35.3609 15.9844 35.5826 15.3087 35.9308 14.5741C36.2782 13.8414 36.743 13.0668 37.2152 12.28L36.958 12.1256C36.4877 12.9092 36.0146 13.697 35.6598 14.4456C35.3058 15.1922 35.0609 15.9168 35.0609 16.5736H35.3609ZM37.0398 23.5276C36.5954 22.0921 36.1751 20.7347 35.8658 19.542C35.5558 18.3468 35.3609 17.3302 35.3609 16.5736H35.0609C35.0609 17.3711 35.2647 18.4192 35.5754 19.6173C35.8868 20.8181 36.3094 22.1827 36.7532 23.6163L37.0398 23.5276ZM39.2046 36.3339C39.614 34.7219 39.4098 32.6207 38.9399 30.3841C38.469 28.1433 37.7259 25.7435 37.0398 23.5276L36.7532 23.6163C37.4402 25.8351 38.1788 28.2212 38.6463 30.4458C39.1146 32.6747 39.3053 34.7185 38.9139 36.26L39.2046 36.3339ZM29.8204 37.069C32.0998 37.6187 34.2484 38.1377 35.9125 38.179C36.7453 38.1997 37.4746 38.1017 38.0441 37.8151C38.6213 37.5247 39.0239 37.0456 39.2046 36.3339L38.9139 36.26C38.7541 36.889 38.4074 37.2965 37.9093 37.5471C37.4035 37.8016 36.7315 37.8992 35.9199 37.8791C34.2951 37.8387 32.1824 37.33 29.8908 36.7774L29.8204 37.069ZM17.6255 36.4315C19.1822 35.6652 21.1517 35.5606 23.2822 35.7833C25.4107 36.0058 27.6774 36.5522 29.8204 37.069L29.8908 36.7774C27.752 36.2616 25.4653 35.7099 23.3134 35.4849C21.1634 35.2602 19.1256 35.3587 17.493 36.1624L17.6255 36.4315ZM14.1688 37.3589C15.2887 37.2974 16.4502 37.0101 17.6255 36.4315L17.493 36.1624C16.3535 36.7232 15.2315 37.0001 14.1524 37.0593L14.1688 37.3589ZM14.0682 37.0909C12.7866 38.0928 10.5246 39.2843 8.33847 39.7536C6.14327 40.2248 4.10265 39.9565 3.14306 38.1541L2.87825 38.2951C3.93851 40.2866 6.17537 40.5248 8.40143 40.0469C10.6366 39.5671 12.9396 38.354 14.253 37.3273L14.0682 37.0909ZM3.14306 38.1541C0.88634 33.9153 0.439895 30.771 2.35315 28.4534L2.12179 28.2624C0.0801661 30.7355 0.615159 34.0443 2.87825 38.2951L3.14306 38.1541ZM2.35315 28.4534C2.75595 27.9654 3.16725 27.57 3.58221 27.2354L3.39389 27.0018C2.96399 27.3485 2.53811 27.7581 2.12179 28.2624L2.35315 28.4534ZM5.00363 18.2459C3.6898 19.3619 3.12416 20.8745 2.96172 22.4595C2.79953 24.0421 3.03789 25.7079 3.34126 27.1495L3.63483 27.0877C3.33363 25.6564 3.10269 24.0265 3.26016 22.49C3.41739 20.9559 3.96039 19.5257 5.19785 18.4746L5.00363 18.2459ZM4.93441 18.381L4.97585 18.4433L5.22564 18.2772L5.1842 18.2149L4.93441 18.381Z" fill="#014751" fill-opacity="0.2"/>
<g filter="url(#filter0_f_2223_8985)">
<path fill-rule="evenodd" clip-rule="evenodd" d="M6.60151 18.5287C4.80607 15.8351 2.56174 5.06242 8.39689 3.71585C14.232 2.36928 18.2718 2.81771 20.5161 5.95981C21.8418 7.81587 22.2278 9.5152 22.5992 11.1504C22.6944 11.5693 22.7885 11.984 22.8973 12.396C23.4508 11.9136 23.9867 11.4232 24.5132 10.9414C27.3889 8.31009 29.9869 5.93281 33.6692 6.49053C38.8258 7.27156 37.0717 10.1938 35.353 13.057C34.5068 14.4667 33.6692 15.8621 33.6692 16.9807C33.6692 18.3759 34.3849 20.6877 35.1824 23.2633C36.415 27.2444 37.8427 31.8558 37.1239 34.6867C36.5126 37.094 32.9651 36.2385 28.8616 35.2489C25.0178 34.322 20.6861 33.2773 17.8229 34.6867C16.7839 35.1981 15.759 35.4514 14.7719 35.5056C12.4423 37.3266 6.57565 39.8231 4.7624 36.4172C2.73364 32.6065 2.29311 29.7101 4.0683 27.5597C4.43597 27.1143 4.81174 26.753 5.19096 26.4471C4.64822 23.868 4.34836 20.5301 6.63871 18.5846L6.60151 18.5287Z" fill="#014751" fill-opacity="0.1"/>
</g>
<g filter="url(#filter1_f_2223_8985)">
<path fill-rule="evenodd" clip-rule="evenodd" d="M7.63936 18.6837C5.98159 16.1967 3.90934 6.24999 9.29708 5.00666C14.6848 3.76334 18.4148 4.17739 20.487 7.07857C21.7111 8.79231 22.0675 10.3614 22.4104 11.8712C22.4983 12.2579 22.5852 12.6408 22.6857 13.0212C23.1968 12.5758 23.6915 12.1231 24.1777 11.6782C26.8328 9.24864 29.2316 7.05363 32.6316 7.5686C37.3929 8.28974 35.7733 10.9879 34.1863 13.6316C33.405 14.9332 32.6316 16.2216 32.6316 17.2544C32.6316 18.5426 33.2925 20.6772 34.0288 23.0553C35.1669 26.7312 36.4851 30.989 35.8214 33.6028C35.257 35.8255 31.9815 35.0356 28.1926 34.1219C24.6435 33.266 20.644 32.3015 18.0004 33.6028C17.041 34.075 16.0947 34.3089 15.1833 34.3589C13.0323 36.0403 7.61548 38.3453 5.94126 35.2006C4.06806 31.6821 3.66131 29.0078 5.30038 27.0223C5.63986 26.611 5.98682 26.2774 6.33697 25.995C5.83584 23.6137 5.55897 20.5317 7.67371 18.7354L7.63936 18.6837Z" fill="#014751" fill-opacity="0.1"/>
</g>
<g filter="url(#filter2_f_2223_8985)">
<path fill-rule="evenodd" clip-rule="evenodd" d="M8.91497 18.8746C7.4264 16.6414 5.56566 7.70992 10.4035 6.5935C15.2413 5.47708 18.5906 5.84886 20.4513 8.45393C21.5504 9.99275 21.8704 11.4016 22.1784 12.7574L22.1784 12.7576C22.2573 13.1046 22.3353 13.4482 22.4254 13.7896C22.8844 13.3896 23.3287 12.983 23.7653 12.5835C26.1495 10.4019 28.3034 8.43092 31.3564 8.89332C35.6317 9.54086 34.1774 11.9636 32.7524 14.3375C32.0508 15.5062 31.3564 16.6632 31.3564 17.5905C31.3564 18.7473 31.9498 20.6639 32.6109 22.7993C33.6329 26.1 34.8166 29.9233 34.2206 32.2703C33.7138 34.2661 30.7726 33.5569 27.3705 32.7364C24.1836 31.9679 20.5923 31.1018 18.2185 32.2703C17.3573 32.6942 16.5077 32.9042 15.6895 32.9492C13.7586 34.459 8.89369 36.5296 7.39018 33.7055C5.70816 30.5462 5.34293 28.1447 6.8147 26.3619C7.11959 25.9926 7.43119 25.6929 7.74565 25.4394C7.29565 23.3011 7.04691 20.5337 8.94557 18.9206L8.91497 18.8746Z" fill="#014751" fill-opacity="0.1"/>
</g>
<g filter="url(#filter3_f_2223_8985)">
<path fill-rule="evenodd" clip-rule="evenodd" d="M10.0029 19.0365C8.65866 17.0199 6.97832 8.9543 11.3471 7.94611C15.7159 6.93793 18.7405 7.27367 20.4208 9.62618C21.4134 11.0158 21.7024 12.2881 21.9805 13.5124C22.0517 13.8259 22.1221 14.1362 22.2035 14.4445C22.618 14.0833 23.0193 13.7162 23.4135 13.3554C25.5665 11.3853 27.5117 9.6054 30.2686 10.023C34.1294 10.6077 32.8161 12.7956 31.5293 14.9393C30.8958 15.9948 30.2686 17.0395 30.2686 17.877C30.2686 18.9216 30.8045 20.6524 31.4016 22.5808C32.3244 25.5615 33.3934 29.0141 32.8552 31.1336C32.3975 32.9359 29.7415 32.2954 26.6692 31.5545C23.7913 30.8605 20.5481 30.0784 18.4045 31.1336C17.6268 31.5164 16.8596 31.706 16.1207 31.7466C14.377 33.1101 9.9837 34.9799 8.62595 32.4296C7.10701 29.5766 6.77718 27.408 8.10627 25.798C8.38159 25.4644 8.66299 25.1939 8.94696 24.9649C8.54059 23.034 8.31596 20.5348 10.0305 19.0781L10.0029 19.0365Z" fill="#014751" fill-opacity="0.1"/>
</g>
<g filter="url(#filter4_f_2223_8985)">
<path fill-rule="evenodd" clip-rule="evenodd" d="M11.2288 19.22C10.0472 17.4472 8.57009 10.3573 12.4104 9.47112C16.2507 8.5849 18.9094 8.88003 20.3864 10.948C21.2589 12.1695 21.513 13.2879 21.7574 14.3641C21.82 14.6395 21.8819 14.9121 21.9534 15.183C22.3178 14.8655 22.6706 14.5427 23.0172 14.2255L23.0172 14.2255C24.9098 12.4937 26.6196 10.9291 29.043 11.2962C32.4368 11.8102 31.2824 13.7334 30.1512 15.6178C29.5943 16.5456 29.043 17.464 29.043 18.2001C29.043 19.1183 29.5141 20.6398 30.0389 22.3349C30.8501 24.955 31.7898 27.9899 31.3167 29.853C30.9144 31.4374 28.5796 30.8743 25.879 30.223C23.3492 29.613 20.4984 28.9255 18.6141 29.853C17.9305 30.1895 17.2562 30.3562 16.6068 30.3919C15.0742 31.5905 11.212 33.2344 10.0184 30.9925C8.68318 28.4846 8.39326 26.5783 9.56156 25.1631C9.80361 24.8699 10.051 24.632 10.3006 24.4307C9.94344 22.7335 9.74594 20.5367 11.2529 19.2561L11.2288 19.22Z" fill="#014751" fill-opacity="0.1"/>
</g>
<g filter="url(#filter5_f_2223_8985)">
<path fill-rule="evenodd" clip-rule="evenodd" d="M12.7711 19.4507C11.794 17.9848 10.5727 12.1224 13.7481 11.3896C16.9236 10.6568 19.122 10.9008 20.3433 12.6107C21.0648 13.6208 21.2748 14.5455 21.477 15.4354L21.477 15.4355C21.5287 15.6632 21.5799 15.8886 21.639 16.1126C21.9403 15.85 22.232 15.5831 22.5186 15.3208L22.5186 15.3208C24.0835 13.8888 25.4973 12.5951 27.5012 12.8986C30.3075 13.3237 29.3529 14.9139 28.4176 16.4721C27.9571 17.2392 27.5012 17.9986 27.5012 18.6073C27.5012 19.3666 27.8908 20.6247 28.3247 22.0263C28.9955 24.1928 29.7725 26.7023 29.3813 28.2429C29.0486 29.5529 27.1181 29.0874 24.885 28.5488C22.7932 28.0444 20.4359 27.4759 18.8778 28.2429C18.3127 28.521 17.7553 28.6588 17.2185 28.6884C15.9516 29.6796 12.7572 31.0396 11.7701 29.1855C10.6661 27.1118 10.4263 25.5355 11.3924 24.3653C11.5926 24.1228 11.7972 23.9261 12.0037 23.7596C11.7082 22.3561 11.5448 20.5395 12.791 19.4805L12.7711 19.4507Z" fill="#014751" fill-opacity="0.1"/>
</g>
<g filter="url(#filter6_f_2223_8985)">
<path fill-rule="evenodd" clip-rule="evenodd" d="M13.9422 19.6265C13.1205 18.3938 12.0934 13.4634 14.7639 12.8472C17.4345 12.2309 19.2834 12.4361 20.3105 13.8741C20.9172 14.7236 21.0939 15.5013 21.2639 16.2497L21.2639 16.2498C21.3074 16.4413 21.3505 16.6308 21.4002 16.8192C21.6536 16.5984 21.8989 16.3739 22.1399 16.1533C23.456 14.9491 24.645 13.8611 26.3303 14.1163C28.6904 14.4738 27.8876 15.8112 27.101 17.1216C26.7137 17.7668 26.3303 18.4054 26.3303 18.9173C26.3303 19.5559 26.6579 20.6139 27.0229 21.7927C27.587 23.6147 28.2404 25.7252 27.9114 27.0208C27.6317 28.1226 26.0081 27.731 24.13 27.2781C22.3708 26.8539 20.3884 26.3758 19.078 27.0208C18.6026 27.2548 18.1337 27.3707 17.6821 27.3956C16.6163 28.229 13.9305 29.3722 13.1005 27.8132C12.172 26.0692 11.9704 24.7436 12.7828 23.7594C12.9512 23.5555 13.1232 23.3901 13.2968 23.2501C13.0484 22.0698 12.9111 20.5422 13.959 19.6517L13.9422 19.6265Z" fill="#014751" fill-opacity="0.1"/>
</g>
<g filter="url(#filter7_f_2223_8985)">
<path fill-rule="evenodd" clip-rule="evenodd" d="M15.0838 19.7973C14.4135 18.7917 13.5757 14.77 15.7541 14.2672C17.9325 13.7645 19.4407 13.9319 20.2785 15.105C20.7734 15.7979 20.9175 16.4323 21.0562 17.0428L21.0562 17.0428C21.0917 17.1989 21.1268 17.3534 21.1673 17.5069C21.374 17.3267 21.5742 17.1436 21.7709 16.9636C22.8444 15.9813 23.8143 15.0938 25.189 15.302C27.1142 15.5936 26.4593 16.6845 25.8177 17.7534C25.5017 18.2797 25.189 18.8007 25.189 19.2183C25.189 19.7391 25.4562 20.6022 25.7539 21.5637L25.7539 21.5637C26.2141 23.05 26.7471 24.7716 26.4788 25.8284C26.2505 26.7271 24.9262 26.4077 23.3942 26.0383C21.9592 25.6922 20.3421 25.3023 19.2732 25.8284C18.8854 26.0193 18.5028 26.1139 18.1343 26.1341C17.2648 26.814 15.0743 27.7463 14.3972 26.4747C13.6399 25.052 13.4754 23.9707 14.1381 23.1679C14.2754 23.0016 14.4157 22.8667 14.5573 22.7525C14.3547 21.7898 14.2428 20.5439 15.0973 19.8175L15.0838 19.7973Z" fill="#014751" fill-opacity="0.1"/>
</g>
<g filter="url(#filter8_f_2223_8985)">
<path fill-rule="evenodd" clip-rule="evenodd" d="M16.3059 19.9794C15.7977 19.217 15.1624 16.1678 16.8141 15.7866C18.4657 15.4055 19.6091 15.5324 20.2444 16.4218C20.6196 16.9471 20.7289 17.4281 20.834 17.891C20.8609 18.0093 20.8875 18.1265 20.9182 18.2429C21.075 18.1063 21.2267 17.9674 21.3758 17.831L21.3759 17.831C22.1898 17.0862 22.9252 16.4133 23.9675 16.5711C25.427 16.7922 24.9305 17.6193 24.4441 18.4298C24.2045 18.8288 23.9675 19.2238 23.9675 19.5404C23.9675 19.9353 24.17 20.5896 24.3958 21.3187L24.3958 21.3187C24.7447 22.4455 25.1488 23.7508 24.9453 24.5521C24.7723 25.2335 23.7682 24.9913 22.6067 24.7112C21.5187 24.4488 20.2926 24.1531 19.4822 24.5521C19.1881 24.6968 18.8981 24.7685 18.6187 24.7838C17.9595 25.2993 16.2986 26.0062 15.7853 25.042C15.2111 23.9634 15.0864 23.1436 15.5889 22.5349C15.6929 22.4088 15.7993 22.3065 15.9067 22.22C15.7531 21.4901 15.6682 20.5455 16.3161 19.9947L16.3059 19.9794Z" fill="#014751" fill-opacity="0.1"/>
</g>
<defs>
<filter id="filter0_f_2223_8985" x="1.9574" y="2" width="36.3599" height="37.1074" filterUnits="userSpaceOnUse" color-interpolation-filters="sRGB">
<feFlood flood-opacity="0" result="BackgroundImageFix"/>
<feBlend mode="normal" in="SourceGraphic" in2="BackgroundImageFix" result="shape"/>
<feGaussianBlur stdDeviation="0.5" result="effect1_foregroundBlur_2223_8985"/>
</filter>
<filter id="filter1_f_2223_8985" x="3.27466" y="3.3457" width="33.7253" height="34.416" filterUnits="userSpaceOnUse" color-interpolation-filters="sRGB">
<feFlood flood-opacity="0" result="BackgroundImageFix"/>
<feBlend mode="normal" in="SourceGraphic" in2="BackgroundImageFix" result="shape"/>
<feGaussianBlur stdDeviation="0.5" result="effect1_foregroundBlur_2223_8985"/>
</filter>
<filter id="filter2_f_2223_8985" x="4.89368" y="5" width="30.4873" height="31.1074" filterUnits="userSpaceOnUse" color-interpolation-filters="sRGB">
<feFlood flood-opacity="0" result="BackgroundImageFix"/>
<feBlend mode="normal" in="SourceGraphic" in2="BackgroundImageFix" result="shape"/>
<feGaussianBlur stdDeviation="0.5" result="effect1_foregroundBlur_2223_8985"/>
</filter>
<filter id="filter3_f_2223_8985" x="6.27454" y="6.41016" width="27.7255" height="28.2852" filterUnits="userSpaceOnUse" color-interpolation-filters="sRGB">
<feFlood flood-opacity="0" result="BackgroundImageFix"/>
<feBlend mode="normal" in="SourceGraphic" in2="BackgroundImageFix" result="shape"/>
<feGaussianBlur stdDeviation="0.5" result="effect1_foregroundBlur_2223_8985"/>
</filter>
<filter id="filter4_f_2223_8985" x="7.83044" y="8" width="24.6135" height="25.1055" filterUnits="userSpaceOnUse" color-interpolation-filters="sRGB">
<feFlood flood-opacity="0" result="BackgroundImageFix"/>
<feBlend mode="normal" in="SourceGraphic" in2="BackgroundImageFix" result="shape"/>
<feGaussianBlur stdDeviation="0.5" result="effect1_foregroundBlur_2223_8985"/>
</filter>
<filter id="filter5_f_2223_8985" x="9.78784" y="10" width="20.6987" height="21.1055" filterUnits="userSpaceOnUse" color-interpolation-filters="sRGB">
<feFlood flood-opacity="0" result="BackgroundImageFix"/>
<feBlend mode="normal" in="SourceGraphic" in2="BackgroundImageFix" result="shape"/>
<feGaussianBlur stdDeviation="0.5" result="effect1_foregroundBlur_2223_8985"/>
</filter>
<filter id="filter6_f_2223_8985" x="11.2744" y="11.5195" width="17.7256" height="18.0664" filterUnits="userSpaceOnUse" color-interpolation-filters="sRGB">
<feFlood flood-opacity="0" result="BackgroundImageFix"/>
<feBlend mode="normal" in="SourceGraphic" in2="BackgroundImageFix" result="shape"/>
<feGaussianBlur stdDeviation="0.5" result="effect1_foregroundBlur_2223_8985"/>
</filter>
<filter id="filter7_f_2223_8985" x="12.7234" y="13" width="14.8276" height="15.1055" filterUnits="userSpaceOnUse" color-interpolation-filters="sRGB">
<feFlood flood-opacity="0" result="BackgroundImageFix"/>
<feBlend mode="normal" in="SourceGraphic" in2="BackgroundImageFix" result="shape"/>
<feGaussianBlur stdDeviation="0.5" result="effect1_foregroundBlur_2223_8985"/>
</filter>
<filter id="filter8_f_2223_8985" x="14.2744" y="14.584" width="11.7256" height="11.9375" filterUnits="userSpaceOnUse" color-interpolation-filters="sRGB">
<feFlood flood-opacity="0" result="BackgroundImageFix"/>
<feBlend mode="normal" in="SourceGraphic" in2="BackgroundImageFix" result="shape"/>
<feGaussianBlur stdDeviation="0.5" result="effect1_foregroundBlur_2223_8985"/>
</filter>
</defs>
</svg>
