<svg width="42" height="41" viewBox="0 0 42 41" fill="none" xmlns="http://www.w3.org/2000/svg">
<path d="M6.15936 29.4096C5.49995 26.1636 1.54349 15.777 13.413 15.7754C25.2824 15.7738 28.5793 2.79291 37.1517 4.09129C45.7241 5.38966 37.1517 12 37.1517 15.7766C37.1517 19.7331 42.3188 30.3065 41 35.5C39.6812 40.6935 26.0941 32.2541 19.5 35.5C12.9059 38.7459 6.81877 32.6555 6.15936 29.4096Z" fill="#014751" fill-opacity="0.5"/>
<path d="M7.00007 17.501C5.00007 14.5006 2.50003 2.50046 9 1.00047C15.5 -0.499523 20 0 22.5 3.5001C25 7.0002 24.5 10 26 13C27.7694 16.5388 32 16.5 32.5 20.5C33.1646 25.8169 28 29 19.5 27.5C12.2621 26.2227 8.83717 20.2571 7.00007 17.501Z" fill="#C4B5F0" fill-opacity="0.7"/>
<path d="M16.8454 35.733C15.1236 37.6868 7.21133 41.6725 4.95142 37.4277C2.69151 33.1828 2.20079 29.9563 4.17823 27.561C6.15567 25.1656 8.34345 24.9525 10.1583 23.3469C12.299 21.4529 11.4827 18.5147 14.1823 17.4183C17.7707 15.9608 20.9566 18.961 21.495 25.1596C21.9534 30.4378 18.4271 33.9384 16.8454 35.733Z" fill="#FFE7A4" fill-opacity="0.5"/>
</svg>
