<?xml version="1.0" encoding="UTF-8"?>
<!DOCTYPE svg PUBLIC "-//W3C//DTD SVG 1.1//EN" "http://www.w3.org/Graphics/SVG/1.1/DTD/svg11.dtd">
<svg xmlns="http://www.w3.org/2000/svg" version="1.1" width="578px" height="125px" style="shape-rendering:geometricPrecision; text-rendering:geometricPrecision; image-rendering:optimizeQuality; fill-rule:evenodd; clip-rule:evenodd" xmlns:xlink="http://www.w3.org/1999/xlink">
<g><path style="opacity:0.974" fill="#6caa67" d="M 15.5,-0.5 C 29.5,-0.5 43.5,-0.5 57.5,-0.5C 53.9686,10.0948 50.6352,20.7615 47.5,31.5C 31.4959,27.8322 15.4959,24.1655 -0.5,20.5C -0.5,18.8333 -0.5,17.1667 -0.5,15.5C 2.5,7.83333 7.83333,2.5 15.5,-0.5 Z"/></g>
<g><path style="opacity:0.965" fill="#6caa67" d="M 69.5,-0.5 C 77.5,-0.5 85.5,-0.5 93.5,-0.5C 88.9089,12.7729 84.4089,26.1062 80,39.5C 72.5054,37.5843 65.0054,35.5843 57.5,33.5C 61.3118,22.0628 65.3118,10.7294 69.5,-0.5 Z"/></g>
<g><path style="opacity:0.972" fill="#6caa67" d="M 104.5,-0.5 C 105.5,-0.5 106.5,-0.5 107.5,-0.5C 115.148,2.31649 120.315,7.64982 123,15.5C 123.667,26.8333 123.667,38.1667 123,49.5C 112.022,46.8815 101.189,43.8815 90.5,40.5C 95.5691,26.959 100.236,13.2923 104.5,-0.5 Z"/></g>
<g><path style="opacity:0.765" fill="#000000" d="M 402.5,8.5 C 407.335,9.16048 409.168,11.8271 408,16.5C 403.371,20.8019 399.871,19.9685 397.5,14C 398.34,11.3304 400.006,9.49708 402.5,8.5 Z"/></g>
<g><path style="opacity:0.887" fill="#000000" d="M 179.5,9.5 C 184.667,9.09 189.667,9.75666 194.5,11.5C 195.659,15.122 195.825,18.7887 195,22.5C 185.454,15.3022 177.788,16.9689 172,27.5C 170.061,40.5066 175.561,46.6733 188.5,46C 190.664,45.0857 192.664,43.919 194.5,42.5C 195.657,45.7844 195.824,49.1177 195,52.5C 176.473,57.9914 165.307,51.3247 161.5,32.5C 162.501,20.7937 168.501,13.127 179.5,9.5 Z"/></g>
<g><path style="opacity:0.855" fill="#000000" d="M 413.5,15.5 C 416.167,15.5 418.833,15.5 421.5,15.5C 421.5,18.8333 421.5,22.1667 421.5,25.5C 426.875,25.1718 432.208,25.5052 437.5,26.5C 439.495,31.1602 441.995,35.4935 445,39.5C 447.167,35.1667 449.333,30.8333 451.5,26.5C 455.122,25.3414 458.789,25.1747 462.5,26C 454.579,39.8397 446.913,53.8397 439.5,68C 436.167,68.6667 432.833,68.6667 429.5,68C 432.706,61.7536 436.04,55.5869 439.5,49.5C 435.333,41.8333 431.167,34.1667 427,26.5C 426.505,28.4727 426.338,30.4727 426.5,32.5C 424.833,32.5 423.167,32.5 421.5,32.5C 421.5,39.5 421.5,46.5 421.5,53.5C 418.5,53.5 415.5,53.5 412.5,53.5C 412.5,46.5 412.5,39.5 412.5,32.5C 411.5,32.5 410.5,32.5 409.5,32.5C 409.5,30.1667 409.5,27.8333 409.5,25.5C 410.5,25.5 411.5,25.5 412.5,25.5C 412.253,22.0613 412.586,18.728 413.5,15.5 Z"/></g>
<g><path style="opacity:0.885" fill="#000000" d="M 209.5,24.5 C 225.058,23.223 231.892,30.223 230,45.5C 225.211,53.773 218.045,56.6063 208.5,54C 198.277,48.7051 195.777,40.8718 201,30.5C 203.671,28.0976 206.505,26.0976 209.5,24.5 Z M 211.5,32.5 C 217.296,31.5612 220.962,33.8945 222.5,39.5C 220.164,46.7267 215.664,48.3934 209,44.5C 206.511,39.7565 207.345,35.7565 211.5,32.5 Z"/></g>
<g><path style="opacity:0.884" fill="#000000" d="M 247.5,24.5 C 252.447,23.6276 256.613,24.9609 260,28.5C 266.412,22.8968 272.412,23.2302 278,29.5C 278.5,37.4931 278.666,45.4931 278.5,53.5C 275.833,53.5 273.167,53.5 270.5,53.5C 270.666,47.4908 270.499,41.4908 270,35.5C 267.765,30.8927 265.098,30.5593 262,34.5C 261.5,40.8246 261.334,47.1579 261.5,53.5C 258.5,53.5 255.5,53.5 252.5,53.5C 252.666,47.1579 252.5,40.8246 252,34.5C 249.333,30.5 246.667,30.5 244,34.5C 243.5,40.8246 243.334,47.1579 243.5,53.5C 240.5,53.5 237.5,53.5 234.5,53.5C 234.5,44.1667 234.5,34.8333 234.5,25.5C 238.03,24.9889 241.196,25.6556 244,27.5C 245.145,26.3636 246.312,25.3636 247.5,24.5 Z"/></g>
<g><path style="opacity:0.898" fill="#000000" d="M 296.5,24.5 C 301.561,23.6652 305.895,24.9986 309.5,28.5C 313.882,24.2777 318.882,23.4444 324.5,26C 326.604,28.0424 327.771,30.5424 328,33.5C 328.5,40.1583 328.666,46.825 328.5,53.5C 325.5,53.5 322.5,53.5 319.5,53.5C 319.666,47.1579 319.5,40.8246 319,34.5C 316.497,30.7099 313.83,30.7099 311,34.5C 310.5,40.8246 310.334,47.1579 310.5,53.5C 307.5,53.5 304.5,53.5 301.5,53.5C 301.666,47.1579 301.5,40.8246 301,34.5C 298.002,30.6322 295.336,30.9655 293,35.5C 292.501,41.4908 292.334,47.4908 292.5,53.5C 289.833,53.5 287.167,53.5 284.5,53.5C 284.5,44.1667 284.5,34.8333 284.5,25.5C 287.711,25.012 290.544,25.6787 293,27.5C 294.145,26.3636 295.312,25.3636 296.5,24.5 Z"/></g>
<g><path style="opacity:0.93" fill="#000000" d="M 379.5,24.5 C 384.969,23.7101 389.469,25.3768 393,29.5C 393.5,37.4931 393.666,45.4931 393.5,53.5C 390.833,53.5 388.167,53.5 385.5,53.5C 385.666,47.4908 385.499,41.4908 385,35.5C 382.931,31.3749 380.098,30.7082 376.5,33.5C 374.675,40.0124 374.008,46.6791 374.5,53.5C 371.833,53.5 369.167,53.5 366.5,53.5C 366.5,44.1667 366.5,34.8333 366.5,25.5C 369.711,25.012 372.544,25.6787 375,27.5C 376.652,26.6006 378.152,25.6006 379.5,24.5 Z"/></g>
<g><path style="opacity:0.896" fill="#000000" d="M 333.5,25.5 C 336.167,25.5 338.833,25.5 341.5,25.5C 341.123,32.2569 341.623,38.9236 343,45.5C 346.294,48.3112 349.294,47.9779 352,44.5C 352.5,38.1754 352.666,31.8421 352.5,25.5C 355.5,25.5 358.5,25.5 361.5,25.5C 361.856,33.2382 361.356,40.9048 360,48.5C 357.122,53.0216 352.955,55.0216 347.5,54.5C 341.311,55.2792 336.811,52.9459 334,47.5C 333.5,40.1742 333.334,32.8409 333.5,25.5 Z"/></g>
<g><path style="opacity:0.853" fill="#000000" d="M 398.5,25.5 C 401.5,25.5 404.5,25.5 407.5,25.5C 407.5,34.8333 407.5,44.1667 407.5,53.5C 404.5,53.5 401.5,53.5 398.5,53.5C 398.5,44.1667 398.5,34.8333 398.5,25.5 Z"/></g>
<g><path style="opacity:0.969" fill="#6caa67" d="M -0.5,31.5 C 14.2305,34.6825 28.8971,38.1825 43.5,42C 40.9366,49.1886 38.2699,56.3553 35.5,63.5C 34.6667,63.8333 33.8333,64.1667 33,64.5C 21.7785,61.8905 10.6118,59.2239 -0.5,56.5C -0.5,48.1667 -0.5,39.8333 -0.5,31.5 Z"/></g>
<g><path style="opacity:0.948" fill="#6caa67" d="M 53.5,44.5 C 61.4046,45.56 69.0713,47.3933 76.5,50C 73.8333,57.3333 71.1667,64.6667 68.5,72C 61.7742,71.322 55.1076,69.9887 48.5,68C 47.572,67.6121 46.9054,66.9454 46.5,66C 48.9402,58.8466 51.2735,51.6799 53.5,44.5 Z"/></g>
<g><path style="opacity:0.967" fill="#6caa67" d="M 86.5,51.5 C 98.73,54.6408 111.063,57.3075 123.5,59.5C 123.831,68.1922 123.498,76.8589 122.5,85.5C 107.859,81.938 93.1921,78.438 78.5,75C 81.4689,67.2598 84.1356,59.4264 86.5,51.5 Z"/></g>
<g><path style="opacity:0.876" fill="#000000" d="M 453.5,57.5 C 456.5,57.5 459.5,57.5 462.5,57.5C 462.334,64.8409 462.5,72.1742 463,79.5C 471.986,74.3828 478.986,76.3828 484,85.5C 486.373,102.305 479.539,108.638 463.5,104.5C 460.242,105.417 456.909,105.751 453.5,105.5C 453.5,89.5 453.5,73.5 453.5,57.5 Z M 465.5,84.5 C 471.563,83.3992 474.896,85.8992 475.5,92C 474.685,98.0395 471.352,100.04 465.5,98C 461.876,95.8387 460.709,92.672 462,88.5C 463.376,87.2949 464.542,85.9616 465.5,84.5 Z"/></g>
<g><path style="opacity:0.859" fill="#000000" d="M 501.5,57.5 C 504.5,57.5 507.5,57.5 510.5,57.5C 510.5,73.5 510.5,89.5 510.5,105.5C 507.5,105.5 504.5,105.5 501.5,105.5C 501.5,89.5 501.5,73.5 501.5,57.5 Z"/></g>
<g><path style="opacity:0.8" fill="#000000" d="M 492.5,60.5 C 497.254,61.611 498.754,64.611 497,69.5C 492.346,72.4242 489.179,71.2576 487.5,66C 487.99,63.013 489.657,61.1797 492.5,60.5 Z"/></g>
<g><path style="opacity:0.769" fill="#000000" d="M 519.5,60.5 C 524.335,61.1605 526.168,63.8271 525,68.5C 520.371,72.8019 516.871,71.9685 514.5,66C 515.679,63.6571 517.346,61.8238 519.5,60.5 Z"/></g>
<g><path style="opacity:0.864" fill="#000000" d="M 371.5,61.5 C 373.792,61.2436 375.959,61.5769 378,62.5C 381.409,70.9811 385.076,79.3145 389,87.5C 392.667,79.1667 396.333,70.8333 400,62.5C 402.381,61.565 404.881,61.2317 407.5,61.5C 409.617,76.2034 411.951,90.87 414.5,105.5C 411.167,105.5 407.833,105.5 404.5,105.5C 403.568,97.8066 402.401,90.1399 401,82.5C 397.498,90.8376 393.498,98.8376 389,106.5C 387.739,106.241 386.739,105.574 386,104.5C 383,97.1667 380,89.8333 377,82.5C 375.071,90.069 373.571,97.7357 372.5,105.5C 369.102,105.82 365.768,105.487 362.5,104.5C 365.379,90.1023 368.379,75.7689 371.5,61.5 Z"/></g>
<g><path style="opacity:0.973" fill="#6caa67" d="M -0.5,67.5 C 10.1073,70.0882 20.774,72.4215 31.5,74.5C 26.444,90.1684 21.2773,105.835 16,121.5C 13.3533,122.464 10.8533,121.964 8.5,120C 4.1179,116.701 1.1179,112.534 -0.5,107.5C -0.5,94.1667 -0.5,80.8333 -0.5,67.5 Z"/></g>
<g><path style="opacity:0.87" fill="#000000" d="M 277.5,67.5 C 280.5,67.5 283.5,67.5 286.5,67.5C 286.5,70.8333 286.5,74.1667 286.5,77.5C 288.167,77.5 289.833,77.5 291.5,77.5C 291.5,79.8333 291.5,82.1667 291.5,84.5C 289.833,84.5 288.167,84.5 286.5,84.5C 286.5,91.5 286.5,98.5 286.5,105.5C 283.5,105.5 280.5,105.5 277.5,105.5C 277.5,98.5 277.5,91.5 277.5,84.5C 276.5,84.5 275.5,84.5 274.5,84.5C 274.5,82.1667 274.5,79.8333 274.5,77.5C 275.5,77.5 276.5,77.5 277.5,77.5C 277.5,74.1667 277.5,70.8333 277.5,67.5 Z"/></g>
<g><path style="opacity:0.848" fill="#000000" d="M 577.5,76.5 C 577.5,78.5 577.5,80.5 577.5,82.5C 570.608,94.612 563.941,106.945 557.5,119.5C 553.878,120.659 550.211,120.825 546.5,120C 550.35,113.967 553.684,107.634 556.5,101C 553.054,93.94 549.22,87.1067 545,80.5C 544.51,81.7932 544.343,83.1266 544.5,84.5C 542.5,84.5 540.5,84.5 538.5,84.5C 538.5,91.5 538.5,98.5 538.5,105.5C 535.5,105.5 532.5,105.5 529.5,105.5C 529.5,98.5 529.5,91.5 529.5,84.5C 528.5,84.5 527.5,84.5 526.5,84.5C 526.5,82.1667 526.5,79.8333 526.5,77.5C 527.5,77.5 528.5,77.5 529.5,77.5C 529.335,74.4816 529.502,71.4816 530,68.5C 532.719,67.5562 535.552,67.2229 538.5,67.5C 538.5,70.8333 538.5,74.1667 538.5,77.5C 543.875,77.1718 549.208,77.5052 554.5,78.5C 557,82.8333 559.5,87.1667 562,91.5C 564.167,87.1667 566.333,82.8333 568.5,78.5C 571.266,76.8713 574.266,76.2046 577.5,76.5 Z"/></g>
<g><path style="opacity:0.864" fill="#000000" d="M 172.5,76.5 C 176.584,76.0431 180.417,76.7098 184,78.5C 184.818,81.2272 184.652,83.8938 183.5,86.5C 174.098,82.282 169.932,85.282 171,95.5C 175.002,99.1225 179.335,99.4558 184,96.5C 184.167,98 184.333,99.5 184.5,101C 184.371,102.981 183.704,104.647 182.5,106C 167.465,107.963 160.631,101.463 162,86.5C 164.106,81.5573 167.606,78.224 172.5,76.5 Z"/></g>
<g><path style="opacity:0.918" fill="#000000" d="M 200.5,76.5 C 202.857,76.3367 205.19,76.5034 207.5,77C 207.957,77.414 208.291,77.914 208.5,78.5C 207.787,80.7759 207.287,83.1093 207,85.5C 203.837,84.0813 200.837,84.4146 198,86.5C 196.63,92.7416 196.13,99.0749 196.5,105.5C 193.833,105.5 191.167,105.5 188.5,105.5C 188.5,96.1667 188.5,86.8333 188.5,77.5C 191.167,77.5 193.833,77.5 196.5,77.5C 196.351,78.552 196.517,79.552 197,80.5C 197.69,78.6498 198.856,77.3164 200.5,76.5 Z"/></g>
<g><path style="opacity:0.862" fill="#000000" d="M 218.5,76.5 C 231.535,74.8744 237.868,80.541 237.5,93.5C 230.833,93.5 224.167,93.5 217.5,93.5C 217.944,99.1527 220.944,100.986 226.5,99C 230.071,95.9571 233.738,95.7904 237.5,98.5C 232.924,106.085 226.258,108.585 217.5,106C 209.39,101.936 206.557,95.4364 209,86.5C 210.35,81.3193 213.517,77.9859 218.5,76.5 Z M 222.5,82.5 C 225.768,82.6343 228.102,84.1343 229.5,87C 225.5,87.6667 221.5,87.6667 217.5,87C 218.445,84.5537 220.111,83.0537 222.5,82.5 Z"/></g>
<g><path style="opacity:0.887" fill="#000000" d="M 249.5,76.5 C 254.118,75.9239 258.285,76.9239 262,79.5C 264.804,77.6556 267.97,76.9889 271.5,77.5C 271.5,86.8333 271.5,96.1667 271.5,105.5C 268.091,105.751 264.758,105.417 261.5,104.5C 245.461,108.638 238.627,102.305 241,85.5C 242.688,81.3148 245.521,78.3148 249.5,76.5 Z M 253.5,84.5 C 262.549,84.701 265.215,88.8677 261.5,97C 254.872,100.33 250.538,98.4971 248.5,91.5C 249.065,88.2842 250.732,85.9509 253.5,84.5 Z"/></g>
<g><path style="opacity:0.86" fill="#000000" d="M 302.5,76.5 C 315.535,74.8744 321.868,80.541 321.5,93.5C 314.833,93.5 308.167,93.5 301.5,93.5C 301.944,99.1527 304.944,100.986 310.5,99C 314.071,95.9571 317.738,95.7904 321.5,98.5C 319.968,102.199 317.301,104.699 313.5,106C 297.834,108.666 291.001,102.166 293,86.5C 294.35,81.3193 297.517,77.9859 302.5,76.5 Z M 306.5,82.5 C 309.768,82.6343 312.102,84.1343 313.5,87C 309.5,87.6667 305.5,87.6667 301.5,87C 302.445,84.5537 304.111,83.0537 306.5,82.5 Z"/></g>
<g><path style="opacity:0.86" fill="#000000" d="M 330.5,76.5 C 333.85,76.335 337.183,76.5017 340.5,77C 345.607,79.2595 345.607,81.7595 340.5,84.5C 338.06,82.0778 335.726,82.0778 333.5,84.5C 336.494,86.7903 339.827,88.6236 343.5,90C 347.959,96.6451 346.625,101.978 339.5,106C 336.167,106.667 332.833,106.667 329.5,106C 322.314,103.811 321.814,100.644 328,96.5C 331.045,99.8229 334.212,100.156 337.5,97.5C 333.613,94.968 329.78,92.3014 326,89.5C 324.379,83.9227 325.879,79.5894 330.5,76.5 Z"/></g>
<g><path style="opacity:0.865" fill="#000000" d="M 428.5,76.5 C 446.294,75.7763 452.46,83.7763 447,100.5C 439.217,107.525 430.717,108.358 421.5,103C 413.147,91.2963 415.48,82.463 428.5,76.5 Z M 430.5,84.5 C 437.12,83.9545 440.286,86.9545 440,93.5C 437.975,98.1447 434.475,99.6447 429.5,98C 425.366,93.1187 425.7,88.6187 430.5,84.5 Z"/></g>
<g><path style="opacity:0.969" fill="#6caa67" d="M 42.5,77.5 C 49.1485,78.995 55.8152,80.495 62.5,82C 63.428,82.3879 64.0946,83.0546 64.5,84C 59.6605,97.0182 55.3272,110.185 51.5,123.5C 43.1401,123.831 34.8068,123.498 26.5,122.5C 31.8422,107.472 37.1755,92.4716 42.5,77.5 Z"/></g>
<g><path style="opacity:0.853" fill="#000000" d="M 488.5,77.5 C 491.5,77.5 494.5,77.5 497.5,77.5C 497.5,86.8333 497.5,96.1667 497.5,105.5C 494.5,105.5 491.5,105.5 488.5,105.5C 488.5,96.1667 488.5,86.8333 488.5,77.5 Z"/></g>
<g><path style="opacity:0.839" fill="#000000" d="M 515.5,77.5 C 518.5,77.5 521.5,77.5 524.5,77.5C 524.5,86.8333 524.5,96.1667 524.5,105.5C 521.5,105.5 518.5,105.5 515.5,105.5C 515.5,96.1667 515.5,86.8333 515.5,77.5 Z"/></g>
<g><path style="opacity:0.979" fill="#6cab67" d="M 75.5,85.5 C 91.1865,88.8379 106.853,92.3379 122.5,96C 125.34,109.318 120.34,118.318 107.5,123C 92.4889,123.833 77.4889,123.666 62.5,122.5C 66.6451,110.063 70.9784,97.7296 75.5,85.5 Z"/></g>
</svg>
