<?xml version="1.0" encoding="UTF-8" standalone="no"?>
<!-- Generator: Adobe Illustrator 25.3.1, SVG Export Plug-In . SVG Version: 6.00 Build 0)  -->

<svg
   xmlns:dc="http://purl.org/dc/elements/1.1/"
   xmlns:cc="http://creativecommons.org/ns#"
   xmlns:rdf="http://www.w3.org/1999/02/22-rdf-syntax-ns#"
   xmlns:svg="http://www.w3.org/2000/svg"
   xmlns="http://www.w3.org/2000/svg"
   xmlns:sodipodi="http://sodipodi.sourceforge.net/DTD/sodipodi-0.dtd"
   xmlns:inkscape="http://www.inkscape.org/namespaces/inkscape"
   version="1.1"
   id="Livello_1"
   x="0px"
   y="0px"
   viewBox="0 0 595.3 595.3"
   style="enable-background:new 0 0 595.3 595.3;"
   xml:space="preserve"
   sodipodi:docname="LOSO-IMPETUS-WHITE-full.svg"
   inkscape:version="0.92.5 (2060ec1f9f, 2020-04-08)"><metadata
   id="metadata11"><rdf:RDF><cc:Work
       rdf:about=""><dc:format>image/svg+xml</dc:format><dc:type
         rdf:resource="http://purl.org/dc/dcmitype/StillImage" /><dc:title></dc:title></cc:Work></rdf:RDF></metadata><defs
   id="defs9" /><sodipodi:namedview
   borderopacity="1"
   objecttolerance="10"
   gridtolerance="10"
   guidetolerance="10"
   inkscape:pageopacity="0"
   inkscape:pageshadow="2"
   inkscape:window-width="1920"
   inkscape:window-height="1016"
   id="namedview7"
   showgrid="false"
   inkscape:zoom="0.39643878"
   inkscape:cx="297.64999"
   inkscape:cy="297.64999"
   inkscape:window-x="0"
   inkscape:window-y="27"
   inkscape:window-maximized="1"
   inkscape:current-layer="Livello_1" />
<path
   class="icon"
   d="m 21.697665,238.66165 73.263698,13.18762 c 6.167607,1.13036 10.092447,6.9706 9.157967,13.18762 v 0 c -1.12139,6.21701 -6.915199,10.1733 -13.082807,9.23133 L 17.772825,261.0806 C 11.605218,259.95023 7.6803766,254.11 8.6148625,247.89298 v 0 c 1.1213832,-6.21702 6.9151965,-10.3617 13.0828025,-9.23133 z M 161.30987,139.37775 98.512411,96.612201 c -4.485534,-3.014311 -10.65314,-3.202706 -14.764878,0.37679 -4.111738,3.579499 -5.233122,9.419729 -2.990356,14.129589 l 24.857323,53.50403 c 0.93449,1.88395 -0.56069,4.14469 -2.80345,4.14469 l -58.872619,-3.20272 c -4.111738,-0.18839 -8.036578,1.69556 -10.279346,5.08666 l -0.186896,0.1884 c -3.737944,5.27504 -2.429664,12.81081 2.990354,16.39031 l 62.984354,43.33074 c 4.859323,3.3911 11.400733,2.07234 14.577983,-2.82592 v 0 c 3.36415,-4.89825 2.05587,-11.49206 -2.80346,-14.69476 L 80.009589,191.56303 c -2.429664,-1.69555 -1.121384,-5.46344 1.682074,-5.27504 l 39.435307,2.07234 c 3.17725,0.18839 6.16761,-1.31877 7.84968,-3.95629 1.68208,-2.63752 2.05588,-6.02863 0.7476,-8.85454 L 112.7166,138.62418 c -1.30828,-2.63753 1.86897,-5.27505 4.11174,-3.5795 l 31.95941,21.85375 c 4.67244,3.20272 11.40074,2.63754 14.76488,-2.07233 3.92484,-5.08664 2.61656,-12.05725 -2.24276,-15.44835 z m 72.5161,-98.153532 c -3.17724,-6.593807 -7.47588,-11.492064 -12.8959,-14.69477 -5.42002,-3.202707 -11.58762,-4.709863 -18.50282,-4.333074 -6.9152,0.188394 -14.20418,2.260734 -22.05386,6.217018 l -27.4739,13.752799 c -5.60692,2.825918 -7.84968,9.608119 -5.04622,15.07156 l 33.0808,67.068439 c 2.61656,5.46344 9.15796,8.28936 14.76488,5.84023 5.9807,-2.63752 8.41038,-9.60812 5.60692,-15.44835 l -5.04622,-10.1733 c -1.1214,-2.44913 -0.1869,-5.275045 2.05586,-6.405412 l 13.2697,-6.593809 c 7.84968,-3.956284 13.8304,-8.477751 18.12902,-13.941193 4.29864,-5.275045 6.9152,-11.115275 7.6628,-17.520687 0.93448,-6.028625 -0.3738,-12.434037 -3.55106,-18.839451 z m -19.4373,23.549312 c -1.68208,4.14468 -5.79382,7.91257 -11.96142,10.926882 l -12.14832,6.028624 c -2.42966,1.130367 -5.23312,0.188395 -6.3545,-2.072339 L 173.27129,57.802935 c -1.12138,-2.449129 -0.1869,-5.275047 2.05586,-6.405414 l 12.14832,-6.028624 c 6.16762,-3.014312 11.40074,-4.144679 15.88626,-3.014312 4.29864,1.130367 7.66278,4.144679 10.09246,9.042936 2.42966,4.709863 2.80346,9.231331 0.93448,13.376009 z m 110.83004,18.651056 -38.50082,0.376789 c -2.61656,0 -4.29864,-1.695551 -4.29864,-4.333073 l -0.1869,-12.999221 c 0,-2.637523 2.05586,-4.709862 4.67242,-4.898257 l 31.02494,-0.376788 c 4.48554,0 8.59728,-3.391101 9.15796,-7.912569 0.5607,-5.275047 -3.73794,-9.60812 -8.78416,-9.60812 l -31.58562,0.376789 c -2.61656,0 -4.67244,-2.07234 -4.85934,-4.709862 l -0.1869,-11.30367 c 0,-2.637523 2.05588,-4.709863 4.67244,-4.898257 l 36.63184,-0.37679 c 4.67244,0 8.97108,-3.579495 9.34486,-8.289358 0.5607,-5.4634401 -3.73794,-9.9849081 -8.97106,-9.9849081 l -55.32156,0.5651835 c -5.04624,0 -8.97108,4.144679 -8.97108,9.2313296 l 0.3738,78.748902 c 0,5.086652 4.11174,9.042934 9.15796,9.042934 l 57.00364,-0.56518 c 5.23312,0 9.53176,-4.709864 8.78418,-10.173305 -0.1869,-4.709863 -4.48554,-8.100964 -9.15796,-7.912569 z m 41.49116,18.462664 23.17526,-56.895141 c 0.93448,-2.449129 -0.1869,-5.275047 -2.61656,-6.217019 l -15.88626,-6.593808 c -4.67244,-1.883944 -6.9152,-7.347385 -5.04622,-12.057248 v 0 c 1.86896,-4.709863 7.28898,-6.970597 11.96142,-5.086651 l 61.11538,25.433258 c 4.67242,1.883944 6.9152,7.347384 5.04622,12.057247 v 0 c -1.86898,4.709863 -7.289,6.970597 -11.96142,5.086652 l -15.88626,-6.593807 c -2.42966,-0.941974 -5.23312,0.188393 -6.16762,2.637522 l -22.98834,56.895135 c -2.42966,5.84023 -8.97106,8.47776 -14.57798,6.21702 v 0 c -5.79382,-2.44913 -8.41038,-9.04293 -6.16762,-14.88316 z m 72.70302,60.66302 c -9.53176,-9.9849 -14.2042,-20.53499 -14.0173,-31.46188 0.1869,-10.92688 5.42002,-21.47697 15.51248,-31.461877 l 28.78216,-27.882385 c 4.48554,-4.333075 11.40072,-4.14468 15.69936,0.376788 l 0.1869,0.188395 c 4.29864,4.521468 4.11174,11.492064 -0.3738,15.825137 l -28.22148,27.317202 c -6.72828,6.40541 -10.09244,12.43404 -10.46624,18.08587 -0.37378,5.65184 1.86898,10.92688 6.7283,15.82514 4.67244,4.89825 9.90556,7.34739 15.51248,7.34739 5.6069,0 11.58762,-3.39111 18.31592,-9.79652 l 28.22148,-27.3172 c 4.48552,-4.33307 11.40072,-4.14468 15.69936,0.37679 v 0 c 4.29864,4.52147 4.11174,11.49206 -0.3738,15.82513 l -28.78216,27.8824 c -10.27936,9.9849 -20.7456,14.69476 -31.77252,14.50637 -10.84004,-0.56518 -21.11938,-5.65183 -30.65114,-15.63675 z m 44.48152,79.50248 c -2.24276,-7.53578 -3.36414,-15.07155 -3.36414,-22.41895 0,-3.57949 0.1869,-6.7822 0.56068,-9.79651 0.7476,-5.08664 5.23312,-8.66614 10.46624,-8.10095 h 0.1869 c 5.23312,0.75357 8.59728,5.65183 7.84968,10.73848 -0.37378,2.26073 -0.56068,4.52146 -0.56068,6.97059 -0.1869,6.02863 0.56068,11.86886 2.24276,17.52069 1.30828,4.33308 2.61656,7.53579 4.29864,9.98492 1.68208,2.44912 3.36414,3.95627 5.23312,4.70986 1.86898,0.75357 3.73794,0.94197 5.79382,0.37678 2.42966,-0.75357 4.11174,-2.26073 5.04622,-4.70986 0.93448,-2.44912 1.30828,-5.27505 1.30828,-8.85454 0,-3.5795 -0.1869,-7.34738 -0.3738,-11.49206 -0.3738,-4.14468 -0.3738,-8.28936 -0.3738,-12.62244 0.1869,-4.33307 0.7476,-8.28936 1.68208,-12.05724 0.93448,-3.7679 2.80346,-7.15899 5.42002,-10.17331 2.61656,-3.01431 6.3545,-5.08665 11.40074,-6.59381 5.23312,-1.50715 10.65314,-1.50715 15.88626,0 5.23312,1.50716 10.09244,4.89827 14.39108,9.98492 4.29864,5.08664 7.84968,12.05724 10.46624,20.91178 1.68208,5.84024 2.80346,11.86885 2.99036,18.08587 0.18688,2.63753 0,5.27506 -0.1869,7.91258 -0.3738,5.08665 -5.04622,8.85454 -10.09246,8.28935 h -0.18688 c -5.04624,-0.56518 -8.59728,-4.89826 -8.22348,-9.98491 0.1869,-1.88394 0.1869,-3.76789 0.1869,-5.65184 0,-4.70986 -0.7476,-9.23132 -2.05588,-13.37601 -1.30828,-4.14468 -2.80346,-7.53577 -4.48554,-9.79651 -1.68206,-2.44912 -3.55104,-3.95628 -5.42,-4.70986 -1.86898,-0.75357 -3.92486,-0.75357 -5.98072,-0.18839 -2.42966,0.75357 -4.11174,2.26073 -4.85932,4.70986 -0.9345,2.44913 -1.30828,5.27504 -1.30828,8.85454 0,3.3911 0.1869,7.34739 0.37378,11.49207 0.1869,4.14468 0.3738,8.28936 0.3738,12.62243 0,4.14467 -0.56068,8.28935 -1.49518,12.05725 -0.93448,3.76789 -2.80346,7.15899 -5.42002,10.17329 -2.61656,3.01432 -6.3545,5.08666 -11.21382,6.59381 -5.23312,1.50716 -10.46624,1.50716 -15.69936,-0.18839 -5.23314,-1.69554 -9.90556,-5.08665 -14.3911,-9.98491 -4.29862,-5.27505 -7.84968,-12.24563 -10.46624,-21.28858 z m -382.20475,64.9961 v -0.18839 c -0.18689,-5.46344 -4.672427,-9.60812 -9.905549,-9.41972 l -77.74923,2.63752 c -5.2331213,0.18839 -9.5317566,4.52147 -9.3448594,9.98491 0,0.1884 0,0.37679 0,0.56518 0.1868972,5.27505 4.6724297,9.41973 9.9055514,9.23133 l 77.74923,-2.63752 c 5.420018,-0.3768 9.531757,-4.89825 9.344857,-10.17331 z m -5.980707,30.33152 -77.001642,17.70909 c -4.859328,1.13036 -7.849682,5.84022 -6.7283,10.73848 0,0.18839 0,0.37678 0.186898,0.37678 1.121384,4.89827 5.98071,7.72418 10.840038,6.59381 l 77.001643,-17.70907 c 4.85932,-1.13037 7.84968,-6.02863 6.7283,-10.92688 v -0.1884 c -1.30828,-4.52147 -6.16761,-7.72418 -11.026937,-6.59381 z m 12.148317,39.18606 -73.637493,33.15743 c -4.111738,1.88395 -5.98071,6.7822 -4.111738,10.92688 0.186898,0.1884 0.186898,0.37679 0.373794,0.75358 1.868972,4.14468 6.7283,5.84023 10.840038,3.95628 l 73.637489,-33.15743 c 4.11174,-1.88395 5.98071,-6.7822 4.11174,-11.11528 v -0.18839 c -2.24276,-4.14468 -7.10209,-6.21702 -11.21383,-4.33307 z m 18.50282,34.85297 -67.282987,47.28702 c -3.364148,2.44914 -4.298634,7.159 -1.868972,10.5501 0.186898,0.18839 0.186898,0.3768 0.373794,0.56519 2.429664,3.3911 7.102094,4.14467 10.466244,1.69554 l 67.096101,-47.28702 c 3.55104,-2.44912 4.29862,-7.34738 1.68206,-10.73849 0,0 0,0 0,-0.18839 -2.42966,-3.3911 -7.10208,-4.33306 -10.46624,-1.88395 z m 25.23112,31.0851 -57.751229,60.28624 c -2.61656,2.82593 -2.61656,7.15899 0.186896,9.79651 0.186898,0.18839 0.186898,0.18839 0.373796,0.3768 2.803458,2.63752 7.102097,2.44913 9.718657,-0.18841 l 57.75122,-60.28623 c 2.61656,-2.82591 2.61656,-7.34738 -0.37378,-9.98491 0,0 0,0 -0.1869,-0.1884 -2.61656,-2.63752 -6.9152,-2.63752 -9.71866,0.1884 z m 30.83804,25.62166 -45.78982,71.4015 c -1.86896,3.01432 -1.12138,6.97061 1.86898,8.85455 0.1869,0 0.1869,0.18839 0.3738,0.18839 2.99034,1.88395 6.9152,0.94198 8.78416,-1.88395 l 45.78982,-71.4015 c 1.86896,-3.01431 0.93448,-6.9706 -2.05588,-8.85455 0,0 0,0 -0.1869,0 -2.99034,-2.07234 -6.91518,-1.31876 -8.78416,1.69556 z m 34.38908,18.46266 -31.95942,80.06765 c -1.12138,3.01432 0.1869,6.21702 3.17726,7.53579 0.1869,0 0.1869,0.18839 0.37378,0.18839 2.99036,1.13036 6.16762,-0.18839 7.4759,-3.20271 l 31.95942,-80.06766 c 1.12138,-3.01432 -0.3738,-6.40541 -3.17726,-7.53577 0,0 0,0 -0.1869,0 -3.17724,-1.31877 -6.5414,0.18839 -7.66278,3.01431 z m 37.19254,11.68045 -16.63384,85.90789 c -0.5607,2.82593 1.30828,5.46345 3.92484,6.02863 h 0.1869 c 2.80344,0.56518 5.42,-1.31877 5.9807,-4.14468 l 16.63386,-85.90789 c 0.56068,-2.82592 -1.30828,-5.46345 -4.11174,-6.02863 0,0 0,0 -0.1869,0 -2.42966,-0.37679 -5.23312,1.31877 -5.79382,4.14468 z m 43.73394,-0.37678 v 0 c 2.61656,0 4.67244,2.07234 4.67244,4.52146 v 88.9222 c 0,2.44914 -1.86898,4.52147 -4.29864,4.52147 h -0.1869 c -2.42966,0 -4.48554,-2.07233 -4.48554,-4.52147 v -88.9222 c -0.37378,-2.63752 1.68208,-4.52146 4.29864,-4.52146 z m 34.2022,0.94196 17.00764,88.35703 c 0.37378,2.07233 2.42966,3.57949 4.48552,3.01431 v 0 c 2.05588,-0.37679 3.36416,-2.44913 2.99036,-4.52147 L 339.42289,497.3273 c -0.3738,-2.07234 -2.42966,-3.3911 -4.48554,-3.0143 v 0 c -1.86896,0.37677 -3.36414,2.26072 -2.99034,4.52145 z m 77.56232,71.02473 -34.01528,-84.77752 c -0.7476,-1.69556 -2.61656,-2.44913 -4.11174,-1.69556 v 0 c -1.68208,0.75359 -2.42966,2.63753 -1.68208,4.14468 l 34.0153,84.77753 c 0.74758,1.69556 2.61656,2.44913 4.11172,1.69556 v 0 c 1.49518,-0.5652 2.24278,-2.44913 1.68208,-4.14469 z m 49.15396,-25.99844 -50.46224,-77.43014 c -0.74758,-1.13037 -2.42966,-1.50716 -3.55104,-0.75357 v 0 c -1.12138,0.75357 -1.49518,2.44913 -0.7476,3.57949 l 50.46224,77.43013 c 0.7476,1.13038 2.42968,1.50716 3.55106,0.75359 v 0 c 1.12138,-0.56518 1.49518,-2.26074 0.74758,-3.5795 z m 42.61256,-33.91101 -64.85332,-67.44523 c -0.74758,-0.75358 -2.05586,-0.75358 -2.80346,0 v 0 c -0.74758,0.75358 -0.74758,2.07234 0,2.82592 l 64.85332,67.44522 c 0.7476,0.75359 2.05588,0.75359 2.80346,0 v 0 c 0.7476,-0.75357 0.7476,-2.07233 0,-2.82591 z m 36.63186,-42.95395 -77.56234,-54.25761 c -0.5607,-0.37679 -1.49518,-0.18839 -1.86898,0.37679 v 0 c -0.37378,0.56519 -0.18688,1.50716 0.3738,1.88394 l 77.56234,54.25762 c 0.56068,0.3768 1.49518,0.18839 1.86896,-0.37679 v 0 c 0.3738,-0.56518 0.3738,-1.31875 -0.37378,-1.88395 z m -60.7416,-85.90789 87.65478,39.18607 c 0.3738,0.18839 0.7476,0 0.9345,-0.3768 v 0 c 0.1869,-0.37679 0,-0.75358 -0.3738,-0.94197 l -87.65478,-38.99766 c -0.3738,-0.18839 -0.7476,0 -0.93448,0.37679 v 0 c 0,0.37679 0.18688,0.75357 0.37378,0.75357 z m 11.77452,-36.92531 94.1962,21.66536 c 0.18688,0 0.18688,0 0.37378,-0.1884 v 0 c 0,-0.18839 0,-0.18839 -0.1869,-0.37678 l -94.19618,-21.66538 c -0.1869,0 -0.1869,0 -0.37378,0.18841 v 0 c 0,0.18839 0.18688,0.37679 0.18688,0.37679 z m 4.67244,-37.11373 96.81274,3.20272 c 0,0 0.1869,0 0.1869,-0.1884 v 0 c 0,0 0,-0.18839 -0.1869,-0.18839 l -96.81274,-3.20271 c 0,0 -0.1869,0.18839 0,0.37678 v 0 c -0.1869,-0.18839 0,0 0,0 z"
   id="path4"
   inkscape:connector-curvature="0"
   style="stroke-width:1.87644351" />
</svg>