<svg version="1.2" xmlns="http://www.w3.org/2000/svg" viewBox="0 0 377 287" width="377" height="287">
	<title>Path 0</title>
	<style>
		.s0 { opacity: 1;fill: #191d22 } 
	</style>
	<path id="Path 0" fill-rule="evenodd" class="s0" d="m156 0l2 12 4-1 1 4-10 3h-4v-4l4-1-1-6-5-2v-4l4-1zm-156 165l6-5 7 4 4-3-2-4 4-2v-4l-3-1-2 6-6-4-1 5h-5l3-14 6 5 9-3 4 4v7l-6 5-1 16-9-11-3 3 4 2-1 4h-5l-3-4zm134-161h7l3 3-1 8h4l1 3-16 5 7-11v-3h-4v5h-5l-1-4zm-16 2l7 2v7l5 3v5l-4 4h-10l-4-17zm-1 8h3v-3h-2zm3 9l5-1-4-3zm-17-6l7 10 6 1-12 8-1-5 3-2-3-6-4 2-2-3zm-18 6l2 14 5 6-3 4-6-7-12-5 2-4 9 3-1-8zm-21 16l10 1 5 12-6 8-12-1-4-5v-8zm-2 9l1 6 6 2 5-5-4-7h-5zm213-2l7 7 15 7-1 25 5 4-3 6v68l15 6-2 49 14 4v7l-4 5-165 1-120-3 2-7 10-1 3-4-1-48-3-7 37-19-1-8 30-5 1-8-5-8 5-2 1-5 42-17-5-6h4l3-6 9 6-6 3v3l13 4 30 19-2 13 2 1h15l5-5 8-2 4-7 5 2 2 5 12 5v-32l-6-6v-4l11-1-2-25 10-4zm-7 19l8-4 10 2-2-3h-16zm14 14l5 1v-11l-4-1zm-15 2l3-1v-7l-4-1zm-5 13v37l5-9 15 1 2 28 3 2v-62l-7-1zm-106 39h28v-18l-28-2zm-31-17l-2 10 1 7h26l-2-19zm64 16l2-11 7 1-8-5zm78-2v22l3 1 1-23 7-1 1 11v-12l-6-2zm-46 19l17 5-1-14h-16zm21 5l20-2-1-11-18-1zm-64-11h1v-1h-1zm-1 1h1v-1h-1zm-87 3v16l-3 4-30 4-2 50 57 2 1-27 8-6-3-1v-20l6-4 8 1 2 3v19l-5 2 9 7 1 26h52v-33l6 1 1 29 1-57 10-11 1-7-13 12-1 29-5 1-1-21-31-1-1-4 5-3v-14h-13zm114 21v53l10 1 1-23 8-4 9 6 1 21h17v-54l-34-14zm51-4l-1-5h-6zm10 57l12 1 1-3v-47h-13zm19-2l14 2v-49h-14zm19 0h3v-13h-3zm-52 10h66l1-4-11-1zm-201-177l15 13v3l-4 2-13-12zm-6 6l4 2-3 6 12 11-5 2-10-9-3 4-5-2zm-13 18h7l3 3-2 11 5 5-4 2-15-10zm0 9l4 2 1-2v-4h-3zm-13 11l23 3-2 4h-4l-1 10-4 2-13-16zm10 9l3-2-4-1zm-17 5l20 6v4l-3 2-7-3 3 7-6 3 8 2-1 5-19-6-1-4 12-3zm3 149l5 3 9 25h-25zm-2 22h7l-4-8zm47-22l4 1 8 12 12-13 3 1v26l-7 1-1-12-4 6h-4l-4-5v10l-7 1zm41 0h7l10 8 1 10-7 9h-16l-6-8v-9zm-4 11l1 9 9 2 5-5-1-7-8-4zm93-11l3 1 12 25 10-25 4-1 12 26 7-19 6-7 12 28h-7l-1-3-25 3-5-14-7 14h-14l-1-3-25 3-9-11-1 11h-7v-27h7l1 10 7-10h8l-9 14 11 11zm-1 19h4l-2-6zm52 0h4l-3-5zm18-19l13 14 8-12 5-2v28l-7-1v-10l-4 5h-4l-4-6-1 12h-7zm40 0h3l3 6 8 22h-6l-1-3-19 3zm-1 19h4l-2-5zm44-19h3l4 8 7 20h-6l-1-3-19 3zm-1 19h4l-2-5zm-309-18h7v10h10v-10l7 1v25l-7 1v-11h-10v11h-7zm87 0h21l-1 6h-9l4 10-4 5h10v6l-21-1 8-12zm191 0h24v5l-9 1v21h-6v-21h-8zm47 0h20v6h-9l4 9-4 6h10v5l-21 1 7-12z"/>
</svg>