<svg width="41" height="42" viewBox="0 0 41 42" fill="none" xmlns="http://www.w3.org/2000/svg">
<path fill-rule="evenodd" clip-rule="evenodd" d="M28.9064 20.189C28.972 20.1762 29.0188 20.1698 29.0844 20.1538C30.7053 19.7317 31.9108 18.1327 31.9108 16.3547L31.8734 4.19634H36.2645V16.4187C36.2676 20.6655 33.1195 24.1991 29.0813 24.6341L28.9033 24.6532V20.189H28.9064ZM27.6009 24.6532L27.3729 24.6341C23.3378 24.2023 20.2178 20.7102 20.2178 16.4634V4.19954H24.5808L24.5746 16.3579C24.5746 18.1359 25.7833 19.7349 27.401 20.157C27.4729 20.173 27.5291 20.1858 27.6009 20.1986V24.6564V24.6532ZM16.9448 37.109V29.8434H15.5581V37.109H16.9448ZM26.3642 37.109V35.8427H23.0755V34.0774H25.8769V32.8111H23.0755V31.1066H26.3642V29.8402H21.6888V37.1058H26.3642V37.109ZM36.2895 37.109V29.8434H34.9028V34.2917L32.092 29.8434H30.8552V37.109H32.2419V32.648L35.0527 37.109H36.2895ZM12.2632 29.8434H10.8172L9.71161 34.426L8.41551 29.8434H7.37863L6.08253 34.426L4.98632 29.8434H3.54343L5.43605 37.109H6.5916L7.89707 32.6991L9.20254 37.109H10.3581L12.2601 29.8434H12.2632ZM3.16553 4.19954H18.2253V8.60943H3.16553V4.19954ZM8.61539 24.5381V9.89178H12.9222V24.5413H8.61539V24.5381ZM36.3551 0.0518799C38.5818 0.0518799 40.3776 1.90026 40.3776 4.18355L40.387 37.2081C40.387 39.4882 38.5756 41.3398 36.3488 41.3398H4.09935C1.87568 41.3398 0.0673828 39.4914 0.0673828 37.2113V4.18355C0.0673828 1.90346 1.87255 0.0518799 4.09622 0.0518799H36.3551Z" fill="#02679A"/>
</svg>
