<svg xmlns="http://www.w3.org/2000/svg" viewBox="0 0 600 71.3"><style>.st0{fill:#1c294a}.st1{fill:red}.st2{fill:#384967}</style><g id="Layer_1"><path class="st0" d="M53.5 35.6c0-9.8-8-17.8-17.8-17.8s-17.8 8-17.8 17.8V0H0v53.5c0 9.8 8 17.8 17.8 17.8s17.8-8 17.8-17.8c0 9.8 8 17.8 17.8 17.8s17.8-8 17.8-17.8V0H53.5v35.6zM85.6 0h17.8v71.3H85.6zM254 0v37.8L216.1 0h-17.8v71.3h17.8V25.1L254 63v8.3h17.8V0zm198 0h-89.1v17.8h35.6v53.5h17.8V17.8H452zm47 35.6c9.8 0 17.8-8 17.8-17.8S508.8 0 499 0h-35.6v71.3h17.8V35.7c0 19.6 16 35.6 35.6 35.6V53.5c-9.8 0-17.8-8.1-17.8-17.9z"/><path class="st1" d="M283.2 71.3H301c0-9.8 8-17.8 17.8-17.8s17.8 8 17.8 17.8h17.8c0-19.6-16-35.6-35.6-35.6-19.6-.1-35.6 16-35.6 35.6"/><path class="st0" d="M318.8 35.6c19.6 0 35.6-16 35.6-35.6h-17.8c0 9.8-8 17.8-17.8 17.8S301 9.8 301 0h-17.8c0 19.6 16 35.6 35.6 35.6M149.5 53.5c-6.6 0-12.3-3.6-15.4-8.9h42V26.7h-42c3.1-5.3 8.8-8.9 15.4-8.9h35.6V0h-35.6c-19.6 0-35.6 16-35.6 35.6s16 35.6 35.6 35.6h35.6V53.5h-35.6zM600 71.3V35.7C600 16 584 0 564.4 0s-35.6 16-35.6 35.6v35.6h17.8V53.5h35.6v17.8H600zm-53.5-35.7c0-9.8 8-17.8 17.8-17.8s17.8 8 17.8 17.8h-35.6z"/><path class="st2" d="M176.1 26.7H134c-1.5 2.6-2.4 5.7-2.4 8.9s.9 6.3 2.4 8.9h42.1V26.7z"/><path class="st0" d="M0 35.6h71.3v17.8H0z"/><path class="st2" d="M0 0h17.8v35.6H0z"/><path class="st0" d="M53.5 0h17.8v35.6H53.5zM17.8 35.6h35.6c0-9.8-8-17.8-17.8-17.8s-17.8 8-17.8 17.8m0 35.7c9.8 0 17.8-8 17.8-17.8H0c0 9.8 8 17.8 17.8 17.8"/><path class="st2" d="M71.3 53.5H35.6c0 9.8 8 17.8 17.8 17.8 9.9 0 17.9-8 17.9-17.8"/><path class="st0" d="M85.6 0h17.8v71.3H85.6zm63.9 71.3V53.5c-9.8 0-17.8-8-17.8-17.8s8-17.8 17.8-17.8V0c-19.6 0-35.6 16-35.6 35.6s16 35.7 35.6 35.7"/><path class="st2" d="M149.5 0h35.6v17.8h-35.6zm0 53.5h35.6v17.8h-35.6z"/><path class="st0" d="M254 0h17.8v71.3H254z"/><path class="st2" d="M216.1 0v25.1L254 63V37.8z"/><path class="st0" d="M198.3 0h17.8v71.3h-17.8z"/><path class="st2" d="M398.5 0h17.8v71.3h-17.8z"/><path class="st0" d="M362.9 0h35.6v17.8h-35.6zm53.4 0h35.6v17.8h-35.6z"/><path class="st2" d="M499 0v35.6c9.8 0 17.8-8 17.8-17.8S508.8 0 499 0"/><path class="st0" d="M481.2 0H499v35.6h-17.8z"/><path class="st2" d="M463.4 0h17.8v35.6h-17.8zM499 35.6h-17.8c0 19.6 16 35.6 35.6 35.6V53.5c-9.8 0-17.8-8.1-17.8-17.9"/><path class="st0" d="M463.4 35.6h17.8v35.6h-17.8zm65.3 0h17.8c0-9.8 8-17.8 17.8-17.8s17.8 8 17.8 17.8H600C600 16 584 0 564.4 0s-35.7 16-35.7 35.6"/><path class="st2" d="M528.7 35.6h17.8v35.6h-17.8z"/><path class="st0" d="M546.5 35.6h35.6v17.8h-35.6z"/><path class="st2" d="M582.2 35.6H600v35.6h-17.8z"/></g></svg>